<?xml version="1.0" encoding="UTF-8"?>
<svg version="1.1" xmlns="http://www.w3.org/2000/svg" width="1024" height="1536">
<path d="M0 0 C337.92 0 675.84 0 1024 0 C1024 506.88 1024 1013.76 1024 1536 C686.08 1536 348.16 1536 0 1536 C0 1029.12 0 522.24 0 0 Z " fill="#0044AD" transform="translate(0,0)"/>
<path d="M0 0 C6.46243745 0 7.11942378 0.2991895 11.8125 4.125 C12.63729858 4.78846436 12.63729858 4.78846436 13.47875977 5.46533203 C15.33127115 6.96262699 17.16518768 8.48108477 19 10 C20.37681047 11.12076739 21.75444026 12.24052891 23.1328125 13.359375 C30.54138133 19.39633116 37.84973299 25.54397836 45.08447266 31.7878418 C49.6541887 35.72603084 54.30088816 39.55765391 58.98828125 43.35546875 C61 45 61 45 62 46 C63.69428307 46.14530987 65.39410742 46.22716523 67.09375 46.28125 C68.63869141 46.33732422 68.63869141 46.33732422 70.21484375 46.39453125 C71.29894531 46.42933594 72.38304687 46.46414063 73.5 46.5 C75.63556094 46.56856141 77.77099476 46.64125012 79.90625 46.71875 C80.85822266 46.74904297 81.81019531 46.77933594 82.79101562 46.81054688 C85 47 85 47 86 48 C86.097926 50.84470832 86.12992493 53.66513904 86.12025452 56.51026917 C86.12110894 57.41358866 86.12196337 58.31690816 86.12284368 59.24760097 C86.12450126 62.29863191 86.1189726 65.34960883 86.11352539 68.40063477 C86.11324355 70.57809447 86.11340119 72.75555427 86.1139679 74.93301392 C86.114256 80.86459197 86.10835716 86.79614999 86.10139394 92.72772336 C86.09516258 98.91906207 86.09455677 105.11040119 86.09336853 111.30174255 C86.09043182 122.36713847 86.08320169 133.43252607 86.07372581 144.49791818 C86.06178151 158.51986384 86.05559925 172.54180835 86.05032361 186.56375802 C86.03985775 214.04251167 86.02151147 241.52125262 86 269 C104.81 269 123.62 269 143 269 C142.99363525 276.07695313 142.98727051 283.15390625 142.98071289 290.4453125 C142.96526521 313.09836178 142.98419899 335.75130075 143.02472496 358.40431088 C143.03099017 361.92399979 143.03695136 365.44368916 143.04272461 368.96337891 C143.04387905 369.66407489 143.04503349 370.36477088 143.04622292 371.08670008 C143.06418185 382.42686428 143.05752162 393.76688682 143.04173584 405.10704851 C143.02608273 416.74631478 143.03747088 428.38532239 143.07234758 440.02454758 C143.09107833 446.56090708 143.0975341 453.09676025 143.07469368 459.63311768 C143.0535797 465.78601456 143.06519003 471.93798375 143.10184479 478.09079933 C143.10953516 480.34823584 143.10529361 482.6057496 143.08818626 484.86313438 C143.06659507 487.94867745 143.08812426 491.03107033 143.12025452 494.11645508 C143.10375557 495.0075252 143.08725663 495.89859531 143.07025772 496.81666756 C143.19765448 502.91950705 144.90563794 505.89642045 149.23722738 510.1763258 C154.54243041 515.66481694 160 526.30661875 160 534 C159.14319195 533.99962028 158.28638389 533.99924056 157.40361196 533.99884933 C106.42129652 533.97638465 55.43898161 533.95926998 4.4566622 533.94893467 C-1.68912951 533.94768423 -7.8349212 533.94638988 -13.98071289 533.94506836 C-15.20403282 533.94480605 -16.42735275 533.94454374 -17.68774299 533.94427348 C-37.39641612 533.93994318 -57.10508629 533.93207041 -76.81375768 533.9228472 C-97.09430735 533.91343679 -117.37485549 533.90792889 -137.65540725 533.90591151 C-150.13100052 533.90455149 -162.60658539 533.90028474 -175.08217607 533.89208353 C-183.68163887 533.88672453 -192.28109745 533.88521606 -200.88056179 533.88649862 C-205.81361641 533.887128 -210.74665656 533.88628921 -215.67970848 533.88079453 C-235.40195854 533.86021331 -255.1237044 533.93882474 -274.84351019 534.27112389 C-276.84770237 534.30315585 -278.85197714 534.33041514 -280.85630205 534.35264211 C-283.63145938 534.38498612 -286.40565309 534.43610852 -289.18041706 534.49227238 C-290.00220542 534.49830671 -290.82399378 534.50434104 -291.67068482 534.51055823 C-297.56502796 534.6605461 -300.75363543 536.11791077 -305.3125 539.9375 C-307.9898921 544.79647086 -307.71482469 549.58238127 -307 555 C-304.76534663 559.66362443 -301.15774817 561.18100335 -296.59344482 563.15542603 C-292.08653605 564.62313331 -287.70530472 564.47076156 -283.0078125 564.35546875 C-281.98122528 564.34743729 -280.95463806 564.33940582 -279.89694214 564.33113098 C-276.63908269 564.30234103 -273.38244531 564.24619488 -270.125 564.1875 C-266.87485635 564.14470314 -263.62475112 564.10776296 -260.3744812 564.07600403 C-258.36081678 564.0546601 -256.34720922 564.02625638 -254.33377075 563.98930359 C-241.6225754 563.81202024 -230.59249983 564.38402748 -220.5703125 573.1171875 C-212.77188828 581.37266222 -210.80070502 589.7331907 -211 601 C-212.14898933 609.56722141 -215.43952876 616.08848471 -222.00390625 621.71875 C-230.75780518 628.10800003 -240.45804819 629.45561814 -251.05175781 629.35302734 C-252.09550568 629.35518753 -253.13925354 629.35734772 -254.21463013 629.35957336 C-256.45983163 629.36263959 -258.70505021 629.35911645 -260.95023346 629.34955978 C-264.50694333 629.33572821 -268.06310118 629.34231269 -271.61981201 629.35440063 C-281.72444438 629.38524229 -291.82894358 629.38043937 -301.93359375 629.36035156 C-308.13206352 629.34943354 -314.33011471 629.3626182 -320.52852631 629.39024734 C-322.8839975 629.39568223 -325.23951071 629.3916386 -327.59494781 629.37784958 C-330.88570423 629.35879533 -334.17508744 629.37020276 -337.46582031 629.38818359 C-338.91696732 629.36817543 -338.91696732 629.36817543 -340.39743042 629.34776306 C-346.69098672 629.42414032 -350.39346426 630.674401 -355 635 C-355.392106 635.54242812 -355.784212 636.08485624 -356.1882 636.64372158 C-359.14332839 638.85587351 -362.47138343 638.39495782 -366.01791382 638.34971619 C-366.84434942 638.35101817 -367.67078502 638.35232016 -368.52226412 638.3536616 C-371.30201224 638.35426015 -374.0811767 638.33321494 -376.86083984 638.31225586 C-378.85001407 638.30809685 -380.8391913 638.30520786 -382.82836914 638.30349731 C-388.24223335 638.29468496 -393.65583893 638.26655402 -399.0696063 638.23397899 C-403.59181052 638.20846292 -408.11402859 638.19219948 -412.63627398 638.17591387 C-423.31441363 638.13727376 -433.99239556 638.08295317 -444.67041016 638.01879883 C-455.66910557 637.9529717 -466.66768475 637.91238956 -477.66653669 637.88460058 C-487.1164914 637.8598777 -496.56629585 637.81977302 -506.01613772 637.76739794 C-511.65651883 637.73626113 -517.29677709 637.71073493 -522.93723679 637.69981194 C-528.25122795 637.68881057 -533.56477514 637.6584682 -538.87858582 637.61371231 C-540.82106248 637.60048162 -542.76359795 637.59384812 -544.70611954 637.59457207 C-571.77798508 637.59354445 -571.77798508 637.59354445 -581.40625 628.046875 C-585.31526914 623.02646806 -587.42009552 617.64837799 -587 611.25 C-585.96775753 605.33806583 -582.56761269 600.78459337 -578 597 C-572.89198609 594.41061217 -568.75045292 593.56852123 -563.00439453 593.63110352 C-562.23754333 593.62733704 -561.47069214 593.62357056 -560.68060303 593.61968994 C-559.02684878 593.61328854 -557.3730577 593.61355814 -555.71930313 593.61987495 C-553.09483762 593.62903885 -550.47107846 593.61870103 -547.84664917 593.60325623 C-540.3891501 593.56330537 -532.93170945 593.56194989 -525.47412109 593.56420898 C-520.90121383 593.56426028 -516.32868849 593.54499658 -511.75588608 593.51487541 C-509.18279404 593.50411526 -506.6104513 593.51614132 -504.03738403 593.52870178 C-492.40640572 593.66947265 -492.40640572 593.66947265 -482 589 C-479.000558 585.5895037 -477.785076 582.4121262 -477.5625 577.875 C-478.00228103 573.97979656 -478.77952683 572.14567032 -481 569 C-481 568.34 -481 567.68 -481 567 C-486.92073237 564.56205138 -491.95548404 562.74688616 -498.42474365 562.77294922 C-500.33386536 562.77316071 -500.33386536 562.77316071 -502.28155518 562.77337646 C-503.67956669 562.78364298 -505.07757692 562.79408588 -506.47558594 562.8046875 C-507.95776163 562.8085288 -509.43993993 562.81145501 -510.92211914 562.8135376 C-514.1076313 562.81984784 -517.29303677 562.83236762 -520.478508 562.84967041 C-525.52246797 562.87678347 -530.56639284 562.88851861 -535.6104126 562.89794922 C-547.23283965 562.9220133 -558.85517481 562.9660632 -570.47753906 563.01040649 C-581.1217256 563.05083017 -591.76588055 563.08696478 -602.41012788 563.10683632 C-607.41679797 563.11676105 -612.42330398 563.13642133 -617.42990828 563.16369629 C-620.55515713 563.17869595 -623.680384 563.18526292 -626.80566406 563.1896286 C-628.24633372 563.19334872 -629.68699961 563.20050224 -631.12763214 563.21149445 C-640.74588794 563.28252269 -650.12996536 563.1393495 -659 559 C-659 558.34 -659 557.68 -659 557 C-660.65 556.34 -662.3 555.68 -664 555 C-664 554.34 -664 553.68 -664 553 C-664.90492188 552.67128906 -664.90492188 552.67128906 -665.828125 552.3359375 C-670.33184436 549.56566408 -671.57234538 543.85289712 -673 539 C-674.335896 529.91134001 -672.49700943 521.93962023 -667.19140625 514.4453125 C-664.86891999 511.85373246 -662.62763158 510.16307787 -659.6875 508.3125 C-658.78386719 507.73113281 -657.88023437 507.14976562 -656.94921875 506.55078125 C-651.13586108 503.49395609 -645.58694072 502.70699822 -639.09765625 502.8046875 C-638.3750914 502.8075174 -637.65252655 502.81034729 -636.9080658 502.81326294 C-634.62603384 502.82435614 -632.34441103 502.84943912 -630.0625 502.875 C-628.50456301 502.88504389 -626.94661979 502.89416726 -625.38867188 502.90234375 C-621.59216784 502.92254867 -617.79653571 502.96171561 -614 503 C-614 494.75 -614 486.5 -614 478 C-616.97 477.67 -619.94 477.34 -623 477 C-638.97777916 471.15828749 -650.86023522 459.34668302 -658 444 C-663.15813297 430.04521702 -664.21854086 414.05856913 -659 400 C-658.58234375 398.86884766 -658.58234375 398.86884766 -658.15625 397.71484375 C-651.53979957 381.54446706 -641.18303593 371.45173047 -625.60546875 363.828125 C-619.87997675 361.70237316 -614.18225213 361.87894525 -608.1640625 361.9375 C-607.28210205 361.94201172 -606.4001416 361.94652344 -605.49145508 361.95117188 C-603.32760725 361.96289211 -601.16379462 361.98082545 -599 362 C-599 360.85934082 -599 359.71868164 -599 358.54345703 C-599 346.36230469 -599 334.18115234 -599 322 C-599.15968433 320.36805525 -599.32458039 318.73661883 -599.4921875 317.10546875 C-600.0399194 311.16267445 -600.1522191 305.2773717 -600.125 299.3125 C-600.12306641 298.27609375 -600.12113281 297.2396875 -600.11914062 296.171875 C-600.07218053 287.75036383 -599.69118276 279.39293349 -599 271 C-599.77730469 271.03480469 -600.55460937 271.06960938 -601.35546875 271.10546875 C-604 271 -604 271 -606.3125 269.3125 C-608 267 -608 267 -608.625 264.5 C-607.86212938 261.44851753 -606.58634435 260.47311653 -603.96507454 258.83145142 C-599.9498911 257.13256932 -595.68232376 257.49859739 -591.39233398 257.57421875 C-589.80835815 257.57833519 -589.80835815 257.57833519 -588.19238281 257.58253479 C-584.7098213 257.59718393 -581.22837039 257.6413881 -577.74609375 257.6875 C-575.32284987 257.70725591 -572.89959577 257.72579331 -570.47633362 257.74316406 C-565.40139227 257.78420327 -560.3268746 257.83983917 -555.25219727 257.90576172 C-548.74658951 257.98912519 -542.24130881 258.03653201 -535.73528957 258.07307434 C-530.73287366 258.1050749 -525.73078646 258.15594598 -520.72859383 258.21255493 C-518.32965446 258.2374554 -515.93064705 258.25650788 -513.5316143 258.2696228 C-510.17994619 258.29080881 -506.82956232 258.33733768 -503.47827148 258.390625 C-502.48644363 258.39187881 -501.49461578 258.39313263 -500.47273254 258.39442444 C-496.02642168 258.49008584 -493.65652909 258.57587686 -489.84510803 261.03808594 C-489.23622238 261.68551758 -488.62733673 262.33294922 -488 263 C-486.80903249 261.83687329 -485.62247296 260.66923328 -484.4375 259.5 C-483.77621094 258.8503125 -483.11492187 258.200625 -482.43359375 257.53125 C-480.460954 255.47945136 -478.5861455 253.398755 -476.72265625 251.25 C-472.28597705 246.14142129 -467.6223926 241.2580336 -462.9609375 236.35546875 C-457.76016277 230.86353095 -452.74461112 225.23954099 -447.85546875 219.46875 C-447.30503906 218.8190625 -446.75460937 218.169375 -446.1875 217.5 C-445.34251953 216.49453125 -445.34251953 216.49453125 -444.48046875 215.46875 C-443 214 -443 214 -441 214 C-441 213.34 -441 212.68 -441 212 C-440.34 212 -439.68 212 -439 212 C-438.73751465 211.41532959 -438.4750293 210.83065918 -438.20458984 210.22827148 C-436.93801467 207.88533844 -435.56651506 206.26662362 -433.7265625 204.34765625 C-432.74490112 203.31523804 -432.74490112 203.31523804 -431.7434082 202.26196289 C-431.0443335 201.53614014 -430.34525879 200.81031738 -429.625 200.0625 C-428.17236356 198.54244369 -426.72054894 197.02160161 -425.26953125 195.5 C-424.54846191 194.74460937 -423.82739258 193.98921875 -423.08447266 193.2109375 C-421.17574051 191.18640268 -419.30384808 189.13653978 -417.44921875 187.0625 C-416.91538574 186.46816162 -416.38155273 185.87382324 -415.83154297 185.26147461 C-414.84583792 184.15901215 -413.86656963 183.05074766 -412.89501953 181.93579102 C-410.17449884 178.91139814 -407.95036468 177.07501727 -404 176 C-399.09134744 176.08924823 -396.15261634 177.0845826 -392.51391602 180.42797852 C-390.86675119 182.13836302 -389.32034231 183.90995075 -387.77734375 185.71484375 C-384.20424799 189.82198487 -380.43545674 193.67711412 -376.5625 197.5 C-375.87873291 198.17998047 -375.19496582 198.85996094 -374.49047852 199.56054688 C-372.32942945 201.70950926 -370.16515274 203.85517279 -368 206 C-365.14283983 208.83033837 -362.28916546 211.66412673 -359.4375 214.5 C-358.79562744 215.13357422 -358.15375488 215.76714844 -357.49243164 216.41992188 C-353.70821349 220.18389829 -350.14694173 224.07461141 -346.65905762 228.11386108 C-344.27055633 230.8292853 -341.74195234 233.38337194 -339.171875 235.92578125 C-338.65618958 236.44005173 -338.14050415 236.9543222 -337.60919189 237.48417664 C-335.9918371 239.09602574 -334.37101405 240.70433191 -332.75 242.3125 C-331.65080644 243.40666478 -330.55184648 244.50106429 -329.453125 245.59570312 C-327.44772381 247.59300234 -325.44104096 249.58899224 -323.43261719 251.58325195 C-321.61843837 253.385596 -319.80656725 255.19003695 -318 257 C-317.73832031 256.27941406 -317.47664063 255.55882812 -317.20703125 254.81640625 C-309.12474998 235.95774996 -289.285911 223.62995328 -271.171875 215.97265625 C-261.81319008 213.10281321 -252.55462653 212.61348826 -242.8125 212.625 C-240.89908813 212.6252417 -240.89908813 212.6252417 -238.94702148 212.62548828 C-229.37687328 212.74116537 -221.03714761 213.84563255 -212 217 C-210.87464844 217.37382813 -209.74929688 217.74765625 -208.58984375 218.1328125 C-207.73519531 218.41898438 -206.88054687 218.70515625 -206 219 C-205.8865279 226.17016389 -206.22496303 233.2299768 -206.8046875 240.375 C-206.88872833 241.456604 -206.97276917 242.53820801 -207.05935669 243.65258789 C-207.32759589 247.10202218 -207.60073366 250.55104007 -207.875 254 C-209.05888295 268.91518093 -210.14020713 283.8280285 -210.9921875 298.765625 C-211.84408491 313.70150371 -212.86209784 328.62182519 -213.94543457 343.54275513 C-216.12970735 373.6657432 -218.12465135 403.80040708 -220.05033875 433.94093323 C-220.24815274 437.03361939 -220.44678832 440.12625182 -220.64562988 443.21887207 C-220.96227855 448.14717703 -221.27654754 453.07562847 -221.58898926 458.00420189 C-221.70380231 459.81181945 -221.81920727 461.61939955 -221.93530273 463.4269352 C-221.98952393 464.27244627 -222.04374512 465.11795734 -222.09960938 465.98908997 C-222.16991364 467.08097988 -222.16991364 467.08097988 -222.24163818 468.19492817 C-222.95890599 479.79903793 -223.47171958 491.37783083 -224 503 C-200.24 503 -176.48 503 -152 503 C-152.90933415 471.45309989 -153.84688332 439.93020821 -155.28258896 408.40430832 C-156.65659908 378.23161327 -157.79604012 348.05278218 -158.87110901 317.86800385 C-158.99971928 314.25787982 -159.12865888 310.64776769 -159.25769043 307.03765869 C-159.99023496 286.53572113 -160.71790923 266.03361206 -161.43847656 245.53125 C-161.7373954 237.02667678 -162.03980217 228.52223577 -162.34653091 220.01794052 C-162.49919668 215.78065055 -162.6500834 211.54331784 -162.79589844 207.30578613 C-163.31853147 192.13832339 -163.89522932 176.98733066 -164.98828125 161.84765625 C-165.06523224 160.76852966 -165.14218323 159.68940308 -165.22146606 158.57757568 C-165.7766111 151.42687265 -166.84638935 144.56190017 -168.3359375 137.54296875 C-169.42487744 131.73315387 -169.73256333 125.90205061 -170 120 C-166.92583613 123.67249107 -164.36133573 127.50663894 -161.9375 131.625 C-161.55972412 132.26091064 -161.18194824 132.89682129 -160.79272461 133.55200195 C-157.5193767 139.07954292 -154.28816732 144.63203594 -151.0625 150.1875 C-150.58997803 151.00105957 -150.11745605 151.81461914 -149.63061523 152.65283203 C-148.96461304 153.80501221 -148.96461304 153.80501221 -148.28515625 154.98046875 C-147.89207275 155.66004639 -147.49898926 156.33962402 -147.09399414 157.03979492 C-146.73297607 157.6866626 -146.37195801 158.33353027 -146 159 C-145.65903793 159.60581909 -145.31807587 160.21163818 -144.96678162 160.83581543 C-143.91162174 163.19783875 -143.63425926 165.01432485 -143.4375 167.5871582 C-143.32728516 168.94687492 -143.32728516 168.94687492 -143.21484375 170.33406067 C-143.10849609 171.80258736 -143.10849609 171.80258736 -143 173.30078125 C-142.91878906 174.32817917 -142.83757813 175.35557709 -142.75390625 176.41410828 C-142.49477373 179.71301791 -142.24705927 183.01266633 -142 186.3125 C-141.75148024 189.53039404 -141.50060521 192.74809903 -141.24966431 195.96580505 C-141.08285874 198.11045246 -140.91731645 200.25519849 -140.75302124 202.40003967 C-140.18957669 209.72457587 -139.5663022 217.04225988 -138.9140625 224.359375 C-138.24685516 231.88154994 -137.66368261 239.38965268 -137.375 246.9375 C-137.31699219 248.28424805 -137.31699219 248.28424805 -137.2578125 249.65820312 C-137.16738491 251.7719481 -137.08290406 253.88594657 -137 256 C-136.4162624 256.12813457 -135.8325248 256.25626915 -135.23109818 256.38828659 C-131.38417416 257.44302055 -128.53048848 258.84494213 -126 262 C-124.95440589 266.12179692 -125.08807242 270.16881025 -125.16113281 274.40136719 C-125.15517593 275.66272491 -125.14921906 276.92408264 -125.14308167 278.22366333 C-125.13044449 280.97027322 -125.13987607 283.7156115 -125.16638947 286.46212006 C-125.20854639 290.85108017 -125.20101681 295.23914429 -125.18743896 299.62823486 C-125.17163884 306.62365876 -125.18889019 313.61855421 -125.2201097 320.61391187 C-125.28137885 334.46937634 -125.28588126 348.32494882 -125.26817131 362.18052101 C-125.26562678 364.42031006 -125.26454544 366.6600969 -125.26350403 368.89988708 C-125.24109794 395.41840028 -123.96825463 421.63970412 -121 448 C-120.89669085 451.01249471 -120.95212692 453.98399586 -121 457 C-120.05640625 456.49339844 -120.05640625 456.49339844 -119.09375 455.9765625 C-108.96942887 450.70093733 -101.43934416 449.68611556 -90 450 C-90.03480469 449.31035156 -90.06960938 448.62070313 -90.10546875 447.91015625 C-90.36822457 438.78877563 -89.18305859 431.43161702 -82.81640625 424.5703125 C-76.43594095 419.05429734 -69.87780394 416.82716508 -61.5625 416.875 C-60.24378906 416.87242187 -58.92507813 416.86984375 -57.56640625 416.8671875 C-54 417 -54 417 -50 418 C-50 405.79 -50 393.58 -50 381 C-67.16 381 -84.32 381 -102 381 C-102 377.37 -102 373.74 -102 370 C-100.36643555 370.05873291 -98.73287109 370.11746582 -97.04980469 370.17797852 C-90.94437565 370.37454945 -84.84164367 370.45708795 -78.73339844 370.5065918 C-76.09867329 370.54357096 -73.4641821 370.61080228 -70.83105469 370.7097168 C-56.68125054 371.76339824 -56.68125054 371.76339824 -43.67700195 367.41619873 C-39.21582489 362.92036603 -36.68989103 357.67318674 -34 352 C-31.03 347.05 -31.03 347.05 -28 342 C-52.42 342 -76.84 342 -102 342 C-102 338.37 -102 334.74 -102 331 C-100.96683151 330.99635437 -99.93366302 330.99270874 -98.8691864 330.98895264 C-89.14256034 330.9520452 -79.41625213 330.89431946 -69.68986797 330.81609726 C-64.68914648 330.77655229 -59.68860293 330.74439838 -54.68774414 330.72900391 C-49.86350679 330.71388339 -45.0397584 330.6795204 -40.2157383 330.63169098 C-38.37335263 330.61682948 -36.53089718 330.60895627 -34.68845177 330.60811615 C-32.1116736 330.60575899 -29.53626063 330.57878238 -26.9597168 330.54589844 C-26.19439133 330.5509288 -25.42906586 330.55595917 -24.64054871 330.56114197 C-22.27128365 330.55914685 -22.27128365 330.55914685 -19 330 C-17.515 328.02 -17.515 328.02 -16 326 C-0.82 326 14.36 326 30 326 C30 238.88 30 151.76 30 62 C-21.48 62 -72.96 62 -126 62 C-125.67 57.05 -125.34 52.1 -125 47 C-83.75 47 -42.5 47 0 47 C0 31.49 0 15.98 0 0 Z " fill="#003A97" transform="translate(763,689)"/>
<path d="M0 0 C51.48 0 102.96 0 156 0 C156 87.12 156 174.24 156 264 C140.82 264.33 125.64 264.66 110 265 C109.01 266.32 108.02 267.64 107 269 C104.21425046 269.38157338 101.82485331 269.50642596 99.0402832 269.45410156 C98.23029877 269.45468567 97.42031433 269.45526978 96.58578491 269.45587158 C93.90701523 269.45308359 91.22935666 269.42195876 88.55078125 269.390625 C86.69419462 269.38316513 84.83760012 269.377471 82.98100281 269.37347412 C78.09323405 269.35819774 73.20594036 269.31889872 68.31835938 269.2746582 C63.33144559 269.23374866 58.34445508 269.21547234 53.35742188 269.1953125 C43.5714058 269.15240637 33.78574239 269.08413084 24 269 C24 272.63 24 276.26 24 280 C48.42 280 72.84 280 98 280 C96.47749352 284.56751945 95.72656424 286.78184155 93.06640625 290.3828125 C92.49986328 291.15753906 91.93332031 291.93226563 91.34960938 292.73046875 C90.75986328 293.52066406 90.17011719 294.31085938 89.5625 295.125 C88.97662109 295.92292969 88.39074219 296.72085937 87.78710938 297.54296875 C86.19965149 299.70162318 84.60344945 301.85320712 83 304 C82.58706696 304.69211578 82.17413391 305.38423157 81.74868774 306.09732056 C80 308 80 308 77.51325989 308.48101807 C76.03100166 308.4676944 76.03100166 308.4676944 74.51879883 308.45410156 C73.39786331 308.45379944 72.2769278 308.45349731 71.12202454 308.45318604 C69.91257675 308.43254089 68.70312897 308.41189575 67.45703125 308.390625 C66.21829758 308.38496521 64.9795639 308.37930542 63.70329285 308.37347412 C60.41335722 308.35486224 57.12420519 308.31893668 53.83453369 308.2746582 C50.47637521 308.23370629 47.11810195 308.2154634 43.75976562 308.1953125 C37.17283026 308.15116362 30.58656739 308.08209134 24 308 C24 311.63 24 315.26 24 319 C41.16 319 58.32 319 76 319 C76 331.21 76 343.42 76 356 C73.050625 355.9175 70.10125 355.835 67.0625 355.75 C59.94449771 355.67837458 54.03372949 355.81752842 48 360 C47.4328125 360.36222656 46.865625 360.72445313 46.28125 361.09765625 C40.63962001 365.17677597 38.50111271 370.19262992 37.3125 376.8515625 C36.78122404 380.55909724 36.36881115 384.27306626 36 388 C35.17757812 388.03738281 34.35515625 388.07476563 33.5078125 388.11328125 C23.69908684 388.69093138 15.71754835 390.42328711 7 395 C6.34 395 5.68 395 5 395 C4.53313704 390.60503258 4.07836968 386.20887813 3.625 381.8125 C3.49867188 380.62462891 3.37234375 379.43675781 3.2421875 378.21289062 C0.71574744 353.51693903 -0.29934891 329.03138336 -0.23213124 304.22765243 C-0.22331332 300.12519344 -0.22642954 296.02273866 -0.22793579 291.92027283 C-0.22897332 284.84949898 -0.22281705 277.77876268 -0.21146011 270.70799828 C-0.19505175 260.485466 -0.18998163 250.26295147 -0.18748413 240.04040746 C-0.18313077 223.44611753 -0.16988648 206.85184751 -0.15087891 190.25756836 C-0.13245849 174.15893653 -0.11835533 158.06031017 -0.10986328 141.96166992 C-0.10932729 140.95556083 -0.10879129 139.94945174 -0.10823905 138.91285449 C-0.10407905 131.04183604 -0.10016561 123.17081747 -0.09632993 115.29979885 C-0.07753791 76.86651428 -0.0372837 38.43327968 0 0 Z " fill="#0059CE" transform="translate(637,751)"/>
<path d="M0 0 C6.46243745 0 7.11942378 0.2991895 11.8125 4.125 C12.63729858 4.78846436 12.63729858 4.78846436 13.47875977 5.46533203 C15.33127115 6.96262699 17.16518768 8.48108477 19 10 C20.37681047 11.12076739 21.75444026 12.24052891 23.1328125 13.359375 C30.54138133 19.39633116 37.84973299 25.54397836 45.08447266 31.7878418 C49.6541887 35.72603084 54.30088816 39.55765391 58.98828125 43.35546875 C61 45 61 45 62 46 C63.69428307 46.14530987 65.39410742 46.22716523 67.09375 46.28125 C68.63869141 46.33732422 68.63869141 46.33732422 70.21484375 46.39453125 C71.29894531 46.42933594 72.38304687 46.46414063 73.5 46.5 C75.63556094 46.56856141 77.77099476 46.64125012 79.90625 46.71875 C80.85822266 46.74904297 81.81019531 46.77933594 82.79101562 46.81054688 C85 47 85 47 86 48 C86.097926 50.84470832 86.12992493 53.66513904 86.12025452 56.51026917 C86.12153615 57.86524841 86.12153615 57.86524841 86.12284368 59.24760097 C86.12450126 62.29863191 86.1189726 65.34960883 86.11352539 68.40063477 C86.11324355 70.57809447 86.11340119 72.75555427 86.1139679 74.93301392 C86.114256 80.86459197 86.10835716 86.79614999 86.10139394 92.72772336 C86.09516258 98.91906207 86.09455677 105.11040119 86.09336853 111.30174255 C86.09043182 122.36713847 86.08320169 133.43252607 86.07372581 144.49791818 C86.06178151 158.51986384 86.05559925 172.54180835 86.05032361 186.56375802 C86.03985775 214.04251167 86.02151147 241.52125262 86 269 C104.81 269 123.62 269 143 269 C142.99363525 276.07695313 142.98727051 283.15390625 142.98071289 290.4453125 C142.96526521 313.09836178 142.98419899 335.75130075 143.02472496 358.40431088 C143.03099017 361.92399979 143.03695136 365.44368916 143.04272461 368.96337891 C143.04387905 369.66407489 143.04503349 370.36477088 143.04622292 371.08670008 C143.06418185 382.42686428 143.05752162 393.76688682 143.04173584 405.10704851 C143.02608273 416.74631478 143.03747088 428.38532239 143.07234758 440.02454758 C143.09107833 446.56090708 143.0975341 453.09676025 143.07469368 459.63311768 C143.0535797 465.78601456 143.06519003 471.93798375 143.10184479 478.09079933 C143.10953516 480.34823584 143.10529361 482.6057496 143.08818626 484.86313438 C143.06659507 487.94867745 143.08812426 491.03107033 143.12025452 494.11645508 C143.10375557 495.0075252 143.08725663 495.89859531 143.07025772 496.81666756 C143.19765448 502.91950705 144.90563794 505.89642045 149.23722738 510.1763258 C154.54243041 515.66481694 160 526.30661875 160 534 C117.1 534 74.2 534 30 534 C29.67 533.34 29.34 532.68 29 532 C29.66 532 30.32 532 31 532 C31.04125 530.906875 31.0825 529.81375 31.125 528.6875 C32.82645997 515.3121341 45.14313636 502.34145467 55 494 C62.30893433 488.83136994 70.21795522 484.9009435 79 483 C79.75410156 482.81953125 80.50820313 482.6390625 81.28515625 482.453125 C95.64363631 480.05660171 109.34770992 482.57936394 122.2409668 489.09130859 C123.31992722 489.63500092 124.39888763 490.17869324 125.51054382 490.73886108 C126.74282463 491.36312485 126.74282463 491.36312485 128 492 C127.89252371 477.81316971 127.77965987 463.62639095 127.66066074 449.43965244 C127.60555741 442.85179323 127.55215795 436.26392949 127.50268555 429.67602539 C127.45485581 423.31528437 127.40250705 416.95459495 127.34705925 410.59391594 C127.32671977 408.17033109 127.30799325 405.74673213 127.29092598 403.32312202 C127.26669498 399.9218246 127.23666715 396.52062307 127.20532227 393.11938477 C127.1995668 392.12316101 127.19381134 391.12693726 127.18788147 390.1005249 C127.12764682 384.32906031 126.73312788 378.72612207 126 373 C125.34 373 124.68 373 124 373 C122.6328125 371.0234375 122.6328125 371.0234375 121.125 368.375 C119.45802118 365.49714069 117.79637241 362.69764388 115.9375 359.9375 C114.42088231 357.63811189 113.08611665 355.38183592 111.7734375 352.96875 C108.37712991 346.81453851 104.69545607 340.83690434 101.02148438 334.84570312 C100.50263672 333.99041016 99.98378906 333.13511719 99.44921875 332.25390625 C98.74285278 331.09870483 98.74285278 331.09870483 98.0222168 329.92016602 C97 328 97 328 97 326 C75.22 326 53.44 326 31 326 C30.86836612 298.81375225 30.73773787 271.62750024 30.60884857 244.44123936 C30.5489445 231.81230424 30.48862339 219.18337141 30.42724609 206.55444336 C30.37362136 195.52044023 30.32085478 184.48643335 30.26903296 173.45242161 C30.24167987 167.63424341 30.21395569 161.81606762 30.18519592 155.99789619 C30.15789202 150.47146429 30.13177314 144.94502783 30.10640144 139.41858673 C30.09712889 137.43798318 30.08749597 135.45738125 30.07737541 133.47678185 C29.95620898 109.65110986 30 85.82631515 30 62 C-21.48 62 -72.96 62 -126 62 C-125.67 57.05 -125.34 52.1 -125 47 C-83.75 47 -42.5 47 0 47 C0 31.49 0 15.98 0 0 Z " fill="#003487" transform="translate(763,689)"/>
<path d="M0 0 C1.2684375 0.12375 1.2684375 0.12375 2.5625 0.25 C5.85524591 5.18911886 6.10340986 10.96058314 7.0625 16.75 C7.27519531 17.94109375 7.48789062 19.1321875 7.70703125 20.359375 C11.63816977 43.80150161 11.97828554 67.7422175 12.79118729 91.45302582 C12.93660384 95.65519427 13.08860854 99.85712497 13.23999023 104.05908203 C13.52005042 111.85114487 13.79689555 119.64331698 14.07226562 127.43554688 C14.90898667 151.08761292 15.76754972 174.73890056 16.62699413 198.39015007 C16.90162158 205.95024764 17.17516465 213.51038156 17.44595337 221.07061768 C17.7547237 229.69038821 18.06521225 238.31009464 18.37890625 246.9296875 C18.40399348 247.61903783 18.42908071 248.30838815 18.45492816 249.01862788 C19.16846716 268.59104157 19.95536274 288.158293 20.92054749 307.72006226 C21.44320631 318.33171672 21.85792194 328.94307128 22.1875 339.5625 C22.24737343 341.4282518 22.24737343 341.4282518 22.30845642 343.33169556 C22.70167947 357.64510562 22.5625 371.91577969 22.5625 386.25 C-1.1975 386.25 -24.9575 386.25 -49.4375 386.25 C-49.4375 372.20267485 -49.27124727 358.43085653 -48.3359375 344.45703125 C-48.21726946 342.60753747 -48.09915288 340.75800824 -47.98153687 338.90844727 C-47.6661364 333.98010804 -47.3415563 329.05241547 -47.01475525 324.12482071 C-46.74155961 319.98840069 -46.47387486 315.85163011 -46.20589447 311.7148695 C-44.16872614 280.30555695 -41.96934218 248.90791755 -39.62566948 217.51999855 C-39.32703293 213.51995637 -39.03006144 209.51979256 -38.734375 205.51953125 C-38.67752659 204.75066589 -38.62067818 203.98180054 -38.56210709 203.18963623 C-37.6717829 191.08437618 -36.93540614 178.97468331 -36.26931 166.85519791 C-35.56857843 154.12307655 -34.68263309 141.41134511 -33.69107056 128.69851685 C-32.17564478 109.20954677 -30.86404272 89.7254177 -29.93121338 70.19992065 C-29.64084682 64.13679891 -29.33797393 58.07470561 -28.97265625 52.015625 C-28.90312744 50.8287207 -28.83359863 49.64181641 -28.76196289 48.41894531 C-27.66076572 37.66383673 -20.546014 28.53535733 -14.921875 19.60888672 C-13.44844847 17.2673987 -11.98800607 14.91829539 -10.53125 12.56640625 C-2.91899284 0.29938388 -2.91899284 0.29938388 0 0 Z " fill="#0058CD" transform="translate(588.4375,805.75)"/>
<path d="M0 0 C3.07416387 3.67249107 5.63866427 7.50663894 8.0625 11.625 C8.44027588 12.26091064 8.81805176 12.89682129 9.20727539 13.55200195 C12.4806233 19.07954292 15.71183268 24.63203594 18.9375 30.1875 C19.41002197 31.00105957 19.88254395 31.81461914 20.36938477 32.65283203 C20.81338623 33.42095215 21.2573877 34.18907227 21.71484375 34.98046875 C22.10792725 35.66004639 22.50101074 36.33962402 22.90600586 37.03979492 C23.26702393 37.6866626 23.62804199 38.33353027 24 39 C24.34096207 39.60581909 24.68192413 40.21163818 25.03321838 40.83581543 C26.08837826 43.19783875 26.36574074 45.01432485 26.5625 47.5871582 C26.63597656 48.49363602 26.70945312 49.40011383 26.78515625 50.33406067 C26.85605469 51.31307846 26.92695312 52.29209625 27 53.30078125 C27.08121094 54.32817917 27.16242187 55.35557709 27.24609375 56.41410828 C27.50522627 59.71301791 27.75294073 63.01266633 28 66.3125 C28.24851976 69.53039404 28.49939479 72.74809903 28.75033569 75.96580505 C28.91714126 78.11045246 29.08268355 80.25519849 29.24697876 82.40003967 C29.81042331 89.72457587 30.4336978 97.04225988 31.0859375 104.359375 C31.75314484 111.88154994 32.33631739 119.38965268 32.625 126.9375 C32.68300781 128.28424805 32.68300781 128.28424805 32.7421875 129.65820312 C32.83261509 131.7719481 32.91709594 133.88594657 33 136 C33.8756064 136.19220186 33.8756064 136.19220186 34.76890182 136.38828659 C38.61582584 137.44302055 41.46951152 138.84494213 44 142 C45.04559411 146.12179692 44.91192758 150.16881025 44.83886719 154.40136719 C44.84482407 155.66272491 44.85078094 156.92408264 44.85691833 158.22366333 C44.86955551 160.97027322 44.86012393 163.7156115 44.83361053 166.46212006 C44.79145361 170.85108017 44.79898319 175.23914429 44.81256104 179.62823486 C44.82836116 186.62365876 44.81110981 193.61855421 44.7798903 200.61391187 C44.71862115 214.46937634 44.71411874 228.32494882 44.73182869 242.18052101 C44.73437322 244.42031006 44.73545456 246.6600969 44.73649597 248.89988708 C44.75890206 275.41840028 46.03174537 301.63970412 49 328 C49.10330915 331.01249471 49.04787308 333.98399586 49 337 C49.6290625 336.66226562 50.258125 336.32453125 50.90625 335.9765625 C61.03057113 330.70093733 68.56065584 329.68611556 80 330 C79.94779297 328.96552734 79.94779297 328.96552734 79.89453125 327.91015625 C79.63177543 318.78877563 80.81694141 311.43161702 87.18359375 304.5703125 C93.56405905 299.05429734 100.12219606 296.82716508 108.4375 296.875 C109.75621094 296.87242187 111.07492187 296.86984375 112.43359375 296.8671875 C116 297 116 297 120 298 C120 326.38 120 354.76 120 384 C106.490625 384.020625 92.98125 384.04125 79.0625 384.0625 C72.71656616 384.07615601 72.71656616 384.07615601 66.24243164 384.09008789 C60.98718262 384.09460449 60.98718262 384.09460449 58.50975037 384.09544373 C56.81716141 384.09695706 55.12457338 384.10042641 53.43199158 384.10557556 C41.91409121 384.13879533 30.48980822 383.82071305 19 383 C17.89735224 379.69205671 17.79029583 377.06884034 17.67456055 373.58300781 C17.65148268 372.92623676 17.62840481 372.26946571 17.60462761 371.59279251 C17.52785313 369.37969041 17.45738679 367.16642987 17.38671875 364.953125 C17.33246995 363.36094673 17.27776526 361.76878394 17.22264099 360.17663574 C17.10338659 356.71235486 16.98668732 353.24800066 16.87188721 349.78356934 C16.58593379 341.16841828 16.28501599 332.55378285 15.98462677 323.93912506 C15.91363527 321.90254462 15.84279079 319.86595905 15.7720871 317.82936859 C15.24456643 302.64531966 14.68386749 287.46284077 14.08984375 272.28125 C14.0510441 271.28955811 14.01224445 270.29786621 13.97226906 269.27612305 C13.65030274 261.05791934 13.32593872 252.83981047 13.00149918 244.6217041 C11.91221245 217.01764896 10.86071177 189.41256144 9.87004471 161.80480194 C9.70350899 157.16446425 9.53618415 152.52415522 9.3687439 147.8838501 C9.25735681 144.79528911 9.14600656 141.7067268 9.03466797 138.61816406 C9.00713589 137.85461751 8.97960382 137.09107095 8.95123744 136.30438662 C8.62390701 127.22270905 8.30001567 118.14092224 7.98152161 109.0589304 C7.78025534 103.32662603 7.57525553 97.5944621 7.36765099 91.86238384 C7.24761348 88.54380115 7.12984816 85.22518035 7.01569366 81.90638733 C6.55979485 68.672236 5.97592723 55.46184237 5.02587891 42.25292969 C4.90918633 40.59798681 4.90918633 40.59798681 4.79013634 38.90961075 C4.23603325 31.64046014 3.17804984 24.6770606 1.6640625 17.54296875 C0.57512256 11.73315387 0.26743667 5.90205061 0 0 Z " fill="#003386" transform="translate(593,809)"/>
<path d="M0 0 C14.58571195 -0.02333003 29.17142103 -0.04091327 43.75714779 -0.05181217 C50.52910421 -0.05697491 57.30104905 -0.06401718 64.07299805 -0.07543945 C70.60224426 -0.08644714 77.13148294 -0.09227625 83.66073799 -0.09487724 C86.15793612 -0.09673199 88.65513355 -0.10035354 91.15232658 -0.10573006 C94.63664069 -0.11293684 98.12090431 -0.1139911 101.60522461 -0.11352539 C103.17075577 -0.1189183 103.17075577 -0.1189183 104.76791382 -0.12442017 C105.71167374 -0.1230455 106.65543365 -0.12167084 107.62779236 -0.12025452 C108.45279708 -0.12117631 109.2778018 -0.1220981 110.12780666 -0.12304783 C112 0 112 0 113 1 C113.11716754 2.42560661 113.16620108 3.85688578 113.18754578 5.28713989 C113.20337204 6.21236954 113.2191983 7.13759918 113.23550415 8.09086609 C113.24761932 9.11420547 113.2597345 10.13754486 113.2722168 11.19189453 C113.29653023 12.799217 113.29653023 12.799217 113.32133484 14.43901062 C113.46166701 24.33786319 113.5396564 34.23762346 113.60025311 44.13725471 C113.64125096 50.79318606 113.70165848 57.44724702 113.80932617 64.10253906 C113.91296022 70.5293991 113.96763863 76.95494839 113.98771095 83.38259506 C114.00366451 85.83314134 114.03693886 88.28363845 114.08786583 90.73370743 C114.15582636 94.16794507 114.16085718 97.5969625 114.15112305 101.03173828 C114.18550476 102.04293228 114.21988647 103.05412628 114.25531006 104.09596252 C114.2078469 107.03948078 114.0396416 109.24163472 113 112 C110.67701839 114.24402025 108.32886656 115.79533711 105.54708767 117.43123245 C103.13935178 118.91417235 101.74954563 120.23832917 99.97409058 122.39492798 C95.82104237 126.03267518 92.76348948 125.81131899 87.41455078 125.68115234 C86.45234556 125.68187555 85.49014034 125.68259876 84.49877739 125.68334389 C81.39676349 125.67887994 78.29693718 125.63326479 75.1953125 125.5859375 C73.27531983 125.57711111 71.35531274 125.57099292 69.43530273 125.56762695 C62.33164771 125.53622364 55.22830215 125.45245567 48.125 125.375 C32.24375 125.25125 16.3625 125.1275 0 125 C0 84.74 0 44.48 0 3 C-17.16 3 -34.32 3 -52 3 C-52 2.67 -52 2.34 -52 2 C-34.84 2 -17.68 2 0 2 C0 1.34 0 0.68 0 0 Z " fill="#0049B5" transform="translate(713,1067)"/>
<path d="M0 0 C3.28775818 2.07374402 6.12352104 4.39718183 9 7 C10.03125 7.7425 11.0625 8.485 12.125 9.25 C18.93880386 15.76755152 22.92547532 24.19654736 26 33 C26.97582031 32.84273437 27.95164062 32.68546875 28.95703125 32.5234375 C42.01684573 30.67977617 54.14409877 30.88838977 65.33203125 38.609375 C72.16077823 44.13318517 75.99564016 50.47478947 78 59 C78.15388332 61.60036732 78.21606666 64.20774008 78.1875 66.8125 C78.17783203 68.77123047 78.17783203 68.77123047 78.16796875 70.76953125 C78 74 78 74 77 76 C49.65396083 76.06999199 22.30793503 76.12293998 -5.03817558 76.15543652 C-17.73462793 76.17092434 -30.43102472 76.19205035 -43.12744141 76.22631836 C-54.18992878 76.25616218 -65.25237592 76.27556106 -76.31490242 76.28226548 C-82.17578428 76.28618627 -88.03655102 76.29544022 -93.89739609 76.31719017 C-99.40813432 76.33747614 -104.91870948 76.34384986 -110.42948151 76.33932304 C-112.45724751 76.34015179 -114.4850187 76.34616418 -116.51275253 76.35761642 C-119.27106501 76.37243722 -122.02875338 76.36899201 -124.78707886 76.36076355 C-126.00398905 76.37387134 -126.00398905 76.37387134 -127.24548328 76.38724393 C-129.47425652 76.36914349 -129.47425652 76.36914349 -133 76 C-135.52238398 72.21642402 -135.57135915 69.37052649 -135 65 C-132.79394888 55.92409841 -127.20243475 48.82347614 -119.73046875 43.33203125 C-106.23998064 35.2755401 -91.55887831 37.65861809 -77 41 C-76.92523438 40.41734375 -76.85046875 39.8346875 -76.7734375 39.234375 C-74.46958772 24.869194 -66.52215381 13.6710795 -55.23046875 4.83203125 C-49.19295153 0.78110768 -42.91444681 -1.82755556 -36 -4 C-24.48253923 -7.83915359 -10.6678225 -5.06721569 0 0 Z " fill="#015BD1" transform="translate(258,573)"/>
<path d="M0 0 C34.65 0 69.3 0 105 0 C105 34.65 105 69.3 105 105 C70.35 105 35.7 105 0 105 C0 70.35 0 35.7 0 0 Z " fill="#0159CF" transform="translate(161,842)"/>
<path d="M0 0 C7.92165109 7.10308048 13.68018308 15.06787515 17.34375 25.1015625 C17.80201172 26.22884766 17.80201172 26.22884766 18.26953125 27.37890625 C21.23834558 35.60997915 21.07039301 44.44839969 21.34375 53.1015625 C22.25125 52.8746875 23.15875 52.6478125 24.09375 52.4140625 C27.34375 52.1015625 27.34375 52.1015625 29.66796875 52.97265625 C32.34925557 56.37895303 32.06765656 59.94110844 32.15625 64.1640625 C32.18485107 65.01863037 32.21345215 65.87319824 32.24291992 66.75366211 C32.62107913 80.70309287 32.62107913 80.70309287 31.34375 84.1015625 C28.29233257 86.11257981 25.95924727 86.30242346 22.34375 86.1015625 C19.32707915 81.08169551 18.95660378 77.38832446 19.15625 71.7265625 C19.17655273 70.62248047 19.17655273 70.62248047 19.19726562 69.49609375 C19.23230131 67.69759507 19.28609712 65.89947828 19.34375 64.1015625 C19.12460938 64.77960938 18.90546875 65.45765625 18.6796875 66.15625 C14.22752368 79.22316984 6.16251841 93.59895089 -6.65625 100.1015625 C-13.23538458 102.80563304 -19.62403328 105.00025712 -26.65625 106.1015625 C-26.64736755 106.69402771 -26.63848511 107.28649292 -26.6293335 107.89691162 C-26.54086704 114.06105912 -26.48051874 120.22502643 -26.43652344 126.38964844 C-26.41640312 128.69050419 -26.38910366 130.99130879 -26.35449219 133.29199219 C-26.30599388 136.59843567 -26.28328522 139.90420335 -26.265625 143.2109375 C-26.24497986 144.24023376 -26.22433472 145.26953003 -26.20306396 146.33001709 C-26.20083014 153.43314328 -26.20083014 153.43314328 -28.48535156 156.78613281 C-30.65625 158.1015625 -30.65625 158.1015625 -33.78125 158.0390625 C-36.65625 157.1015625 -36.65625 157.1015625 -38.65625 154.1015625 C-38.89675903 151.88056946 -38.89675903 151.88056946 -38.88330078 149.26293945 C-38.88314972 148.2821492 -38.88299866 147.30135895 -38.88284302 146.29084778 C-38.87252045 145.23451645 -38.86219788 144.17818512 -38.8515625 143.08984375 C-38.8487326 142.00648239 -38.84590271 140.92312103 -38.84298706 139.80693054 C-38.83178091 136.34252942 -38.80667534 132.87838565 -38.78125 129.4140625 C-38.77122077 127.06706102 -38.76209482 124.7200555 -38.75390625 122.37304688 C-38.73184016 116.61579743 -38.69835827 110.85869835 -38.65625 105.1015625 C-39.2642897 105.04460205 -39.87232941 104.9876416 -40.49879456 104.92895508 C-41.30171432 104.84798584 -42.10463409 104.7670166 -42.93188477 104.68359375 C-43.72554947 104.6060083 -44.51921417 104.52842285 -45.33692932 104.44848633 C-57.16788046 102.67881347 -67.87803377 93.13100621 -74.96875 84.1015625 C-85.17741134 69.50952115 -89.09600413 52.65039045 -86.125 34.93359375 C-85.42991571 32.25525267 -84.61894545 29.69503083 -83.65625 27.1015625 C-83.3778125 26.34746094 -83.099375 25.59335938 -82.8125 24.81640625 C-76.18118987 8.60971296 -65.84177456 -1.3493359 -50.296875 -9.0703125 C-33.38129798 -15.42864996 -13.96028755 -10.56328425 0 0 Z " fill="#003891" transform="translate(187.65625,1061.8984375)"/>
<path d="M0 0 C63.03 0 126.06 0 191 0 C191 23.43 191 46.86 191 71 C173.84 71 156.68 71 139 71 C138.34 66.05 137.68 61.1 137 56 C134.16576752 47.80390819 129.93729486 40.33870083 123 35 C122.11054688 34.31550781 122.11054688 34.31550781 121.203125 33.6171875 C111.44989132 26.88665021 100.67466873 24.86476811 89 26 C77.96044113 28.05822284 68.37070828 34.90875321 62 44 C56.44933297 53.28811617 55.48246902 60.88148233 54 72 C36.18 72 18.36 72 0 72 C0 48.24 0 24.48 0 0 Z " fill="#0059CE" transform="translate(308,1025)"/>
<path d="M0 0 C2.0306973 1.44827933 3.87962336 2.97357364 5.73046875 4.64453125 C6.67212891 5.48371094 6.67212891 5.48371094 7.6328125 6.33984375 C11.59769545 10.07840146 14.36645171 13.72737582 16.73046875 18.64453125 C16.73046875 19.63453125 16.73046875 20.62453125 16.73046875 21.64453125 C17.40722656 21.48726562 18.08398438 21.33 18.78125 21.16796875 C27.60087463 19.6026314 36.64237671 19.38066241 44.515625 24.03125 C50.75000798 28.57234378 56.54859953 34.03560757 58.73046875 41.64453125 C59.31611192 46.68256415 59.59325358 50.350354 56.73046875 54.64453125 C54.04082584 55.02484798 54.04082584 55.02484798 50.54981995 55.0322113 C49.23038391 55.04211594 47.91094788 55.05202057 46.55152893 55.06222534 C45.08065704 55.05798679 43.60978604 55.05342888 42.13891602 55.04858398 C40.59670515 55.05428344 39.05449852 55.06124604 37.51229858 55.06938171 C33.31600797 55.08737586 29.11992573 55.08613302 24.92360806 55.08043933 C21.42443288 55.07735632 17.92529824 55.08343003 14.4261288 55.08947808 C6.17296781 55.10354238 -2.08008972 55.10194636 -10.33325195 55.09057617 C-18.85618332 55.079094 -27.37880006 55.09316784 -35.90168995 55.11997265 C-43.21129339 55.14210345 -50.52079789 55.14877293 -57.83043247 55.14289623 C-62.19960214 55.13951903 -66.56857012 55.14199202 -70.93771172 55.15914726 C-75.04589261 55.17457269 -79.15360621 55.17071038 -83.26176834 55.15184212 C-84.77147518 55.14814387 -86.28121629 55.15130054 -87.79089165 55.16172791 C-89.84843872 55.17485676 -91.90442023 55.16346585 -93.9618988 55.14573669 C-95.11430778 55.14552741 -96.26671675 55.14531813 -97.4540472 55.1451025 C-100.26953125 54.64453125 -100.26953125 54.64453125 -102.13226414 52.77531528 C-104.51025845 48.31990436 -103.97288685 43.51613359 -103.26953125 38.64453125 C-99.96753993 29.03128701 -94.53217562 21.97745832 -85.89453125 16.70703125 C-77.3380491 12.69206655 -66.28983391 13.91422162 -57.26953125 15.64453125 C-56.86863281 15.00386719 -56.46773437 14.36320313 -56.0546875 13.703125 C-43.55047481 -5.32255916 -20.25204006 -12.0954525 0 0 Z " fill="#025CD3" transform="translate(807.26953125,586.35546875)"/>
<path d="M0 0 C3.22717936 2.05853302 6.28766768 4.28766768 9 7 C9.144375 5.865625 9.28875 4.73125 9.4375 3.5625 C10 0 10 0 11 -1 C13.51136104 -1.09975032 15.98903415 -1.13882183 18.5 -1.125 C19.20253906 -1.12886719 19.90507813 -1.13273438 20.62890625 -1.13671875 C25.87338622 -1.12661378 25.87338622 -1.12661378 27 0 C27.10027795 2.39809149 27.13618676 4.76739498 27.12939453 7.16601562 C27.13202301 8.29036263 27.13202301 8.29036263 27.13470459 9.43742371 C27.1391232 11.92705569 27.1361851 14.41661723 27.1328125 16.90625 C27.13348554 18.62878432 27.13445556 20.35131855 27.13571167 22.07385254 C27.13718865 25.68872988 27.13503407 29.30358255 27.13037109 32.91845703 C27.1246738 37.56266493 27.1279528 42.20681504 27.13394356 46.85102081 C27.13754916 50.40936726 27.13641059 53.9676999 27.13381577 57.52604675 C27.13314649 59.23894762 27.13397493 60.95184972 27.13629532 62.66474915 C27.13882183 65.05452822 27.1349813 67.44421241 27.12939453 69.83398438 C27.13141876 70.54882492 27.13344299 71.26366547 27.13552856 72.00016785 C27.11426269 76.88573731 27.11426269 76.88573731 26 78 C23.48863896 78.09975032 21.01096585 78.13882183 18.5 78.125 C17.79746094 78.12886719 17.09492187 78.13273437 16.37109375 78.13671875 C11.12661378 78.12661378 11.12661378 78.12661378 10 77 C9.85884839 74.32941149 9.95752893 71.67567762 10 69 C9.34 69 8.68 69 8 69 C7.505 70.485 7.505 70.485 7 72 C-2.54945326 79.31566303 -12.16252542 81.11806135 -24 80 C-34.44421122 77.57815392 -43.17389145 72.1730978 -49.49609375 63.50390625 C-56.06740972 52.56309186 -57.86718536 39.10119492 -55.31640625 26.66796875 C-52.08251218 16.21484227 -46.5441583 7.43860188 -36.98828125 1.81640625 C-25.61099274 -4.09978378 -11.88817187 -5.67295219 0 0 Z " fill="#FBFCFD" transform="translate(593,244)"/>
<path d="M0 0 C2.58282285 1.85456632 4.71633332 3.76708147 7 6 C7.33 3.69 7.66 1.38 8 -1 C10.64590014 -1.02684679 13.29153096 -1.04676357 15.9375 -1.0625 C17.06961914 -1.07506836 17.06961914 -1.07506836 18.22460938 -1.08789062 C20.14994313 -1.09652441 22.07535581 -1.05224333 24 -1 C25.67062089 0.67062089 25.12569043 2.70553826 25.13552856 4.93637085 C25.13249222 5.99460556 25.13249222 5.99460556 25.12939453 7.07421875 C25.13202301 8.18393539 25.13202301 8.18393539 25.13470459 9.31607056 C25.1391231 11.77323723 25.13618513 14.23033253 25.1328125 16.6875 C25.13348554 18.38761407 25.13445557 20.08772805 25.13571167 21.7878418 C25.13718864 25.35564081 25.13503411 28.92341483 25.13037109 32.49121094 C25.1246738 37.07488494 25.12795281 41.65850039 25.13394356 46.24217224 C25.13754919 49.75419561 25.13641057 53.26620498 25.13381577 56.77822876 C25.1331465 58.46880093 25.13397489 60.15937436 25.13629532 61.84994507 C25.13882189 64.20859157 25.13498121 66.56714195 25.12939453 68.92578125 C25.13141876 69.63127106 25.13344299 70.33676086 25.13552856 71.06362915 C25.11426271 75.88573729 25.11426271 75.88573729 24 77 C21.48863896 77.09975032 19.01096585 77.13882183 16.5 77.125 C15.79746094 77.12886719 15.09492187 77.13273437 14.37109375 77.13671875 C9.12661378 77.12661378 9.12661378 77.12661378 8 76 C7.85884839 73.32941149 7.95752893 70.67567762 8 68 C7.34 68 6.68 68 6 68 C5.79375 68.5775 5.5875 69.155 5.375 69.75 C2.40011242 74.61799786 -3.03312487 76.84595219 -8.3203125 78.45703125 C-20.17729701 80.85953977 -30.42613487 78.47874739 -40.6875 72.4375 C-49.92631401 65.81469426 -55.00127306 56.01829854 -57 45 C-58.1482076 31.35399425 -55.90326512 19.16272879 -47.25 8.25 C-35.18513186 -4.83313067 -15.87968306 -8.57658823 0 0 Z " fill="#FBFCFD" transform="translate(727,245)"/>
<path d="M0 0 C10.71692793 7.08517021 17.15707158 16.02357864 20.20703125 28.45703125 C21.42185195 42.31446272 18.9284531 51.80453079 10.48046875 62.90625 C2.58780818 71.76176091 -7.34161287 75.73292487 -18.984375 76.73046875 C-30.83809891 77.08759137 -40.76588743 74.09052664 -49.8671875 66.3203125 C-57.98683678 58.46418125 -62.95534309 48.36751138 -63.35546875 36.95703125 C-62.74322257 23.9271767 -57.92181019 13.58587269 -48.73046875 4.39453125 C-34.59228262 -7.66450986 -16.11446938 -8.90239917 0 0 Z " fill="#015CD2" transform="translate(578.79296875,614.54296875)"/>
<path d="M0 0 C0.94082932 0.00359528 1.88165863 0.00719055 2.85099792 0.01089478 C4.3288829 0.01067574 4.3288829 0.01067574 5.83662415 0.01045227 C9.11023623 0.01115185 12.3837922 0.01894632 15.65739441 0.02676392 C17.92040984 0.02862794 20.18342567 0.03005191 22.44644165 0.03105164 C28.41577764 0.03487807 34.38508948 0.04470942 40.35441589 0.05575562 C47.50962067 0.06776099 54.66483351 0.07237138 61.82004547 0.07820892 C72.70204319 0.08792111 83.58398786 0.1070768 94.46598816 0.12442017 C94.46598816 15.30442017 94.46598816 30.48442017 94.46598816 46.12442017 C60.80598816 46.12442017 27.14598816 46.12442017 -7.53401184 46.12442017 C-7.53401184 0.01216716 -7.53401184 0.01216716 0 0 Z " fill="#015AD0" transform="translate(668.5340118408203,689.8755798339844)"/>
<path d="M0 0 C1.18517212 0.00737183 1.18517212 0.00737183 2.39428711 0.01489258 C8.37930491 0.13485131 13.61616431 0.84199141 19.125 3.3125 C19.88941406 3.6528125 20.65382813 3.993125 21.44140625 4.34375 C29.81430237 8.53728173 36.08050965 14.88647844 40.125 23.3125 C40.125 23.9725 40.125 24.6325 40.125 25.3125 C40.94226563 24.99023438 41.75953125 24.66796875 42.6015625 24.3359375 C50.12023731 22.15202087 60.65985166 21.58593556 67.875 25 C71.02607702 27.24211249 73.57568839 29.40911734 76.125 32.3125 C76.8675 33.055 77.61 33.7975 78.375 34.5625 C80.72228893 38.25109689 81.38244835 41.94445959 81.125 46.3125 C78.59935719 48.83814281 77.76213565 48.56352279 74.26635742 48.56646729 C72.72677872 48.57492676 72.72677872 48.57492676 71.15609741 48.58355713 C69.46041122 48.57748444 69.46041122 48.57748444 67.73046875 48.57128906 C65.94994614 48.57654602 65.94994614 48.57654602 64.13345337 48.58190918 C60.87315625 48.58921779 57.61302076 48.58748438 54.35272598 48.58115101 C50.94502668 48.5760968 47.53733838 48.58078084 44.12963867 48.58392334 C38.40639296 48.58756468 32.68319882 48.5827595 26.95996094 48.57324219 C20.33773891 48.56235728 13.71564002 48.56588275 7.09342098 48.576895 C1.41355553 48.58596311 -4.2662728 48.5872555 -9.94614315 48.58201766 C-13.34103858 48.57889532 -16.73587608 48.5784958 -20.13076782 48.58509064 C-23.91408725 48.59014614 -27.69716724 48.58245919 -31.48046875 48.57128906 C-32.61092621 48.57533752 -33.74138367 48.57938599 -34.90609741 48.58355713 C-35.93248322 48.57791748 -36.95886902 48.57227783 -38.01635742 48.56646729 C-38.91158615 48.56571323 -39.80681488 48.56495918 -40.72917175 48.56418228 C-42.875 48.3125 -42.875 48.3125 -44.875 46.3125 C-46.35338924 36.89749484 -44.15977113 27.5235552 -38.75195312 19.68457031 C-28.99466977 6.9446103 -16.1279033 -0.11921 0 0 Z " fill="#025CD3" transform="translate(388.875,738.6875)"/>
<path d="M0 0 C18.81 0 37.62 0 57 0 C57.33 2.31 57.66 4.62 58 7 C57.34 7.33 56.68 7.66 56 8 C56 5.69 56 3.38 56 1 C37.85 1 19.7 1 1 1 C1 18.82 1 36.64 1 55 C4.3 55 7.6 55 11 55 C18.08986971 56.86624877 22.22156509 60.73891542 25.94140625 66.9140625 C28.77008955 72.48792553 28.35643537 75.92078902 29 83 C42.365 83.495 42.365 83.495 56 84 C56 84.33 56 84.66 56 85 C52.03069011 85.02465881 48.06140966 85.04284023 44.09204102 85.05493164 C42.74079614 85.05997057 41.38955674 85.06680177 40.03833008 85.07543945 C38.09979566 85.08752419 36.161222 85.09269828 34.22265625 85.09765625 C32.47094116 85.10551147 32.47094116 85.10551147 30.68383789 85.11352539 C28 85 28 85 27 84 C25.40618922 83.89187487 23.80762353 83.85315703 22.21018982 83.84178162 C21.17387421 83.8319928 20.13755859 83.82220398 19.06983948 83.81211853 C17.92329391 83.80636307 16.77674835 83.8006076 15.59545898 83.79467773 C14.39562378 83.78477814 13.19578857 83.77487854 11.95959473 83.76467896 C8.66017762 83.73842867 5.36078552 83.71659258 2.0613277 83.69667697 C-1.3833717 83.67485486 -4.82802642 83.64744777 -8.27268982 83.62062073 C-14.79979489 83.57064262 -21.32692468 83.52572286 -27.85407823 83.48259836 C-35.28325189 83.43326962 -42.71238073 83.37833537 -50.14151108 83.32291877 C-65.42763268 83.2090202 -80.71379543 83.1021984 -96 83 C-95.01258282 77.54965822 -93.15936468 74.66440896 -89 71 C-83.74087465 67.7357153 -79.14167398 66.47730434 -73 67 C-73.0825 65.700625 -73.165 64.40125 -73.25 63.0625 C-73.20148347 52.72847978 -66.67542945 44.80530249 -59.75 37.6875 C-49.91306592 31.65119954 -39.76801892 30.45679981 -28.5 32.6953125 C-15.82374237 36.18715199 -9.01564196 43.15173882 -2 54 C-2 54.66 -2 55.32 -2 56 C-1.34 56 -0.68 56 0 56 C0 37.52 0 19.04 0 0 Z " fill="#003181" transform="translate(306,1109)"/>
<path d="M0 0 C17.16 0 34.32 0 52 0 C52 26.73 52 53.46 52 81 C43.605625 81.020625 35.21125 81.04125 26.5625 81.0625 C23.90904541 81.071604 21.25559082 81.08070801 18.52172852 81.09008789 C16.43245494 81.09300686 14.34318081 81.09555546 12.25390625 81.09765625 C11.15784058 81.10277222 10.0617749 81.10788818 8.93249512 81.11315918 C7.89717651 81.11328003 6.86185791 81.11340088 5.79516602 81.11352539 C4.43948265 81.11685631 4.43948265 81.11685631 3.05641174 81.12025452 C1 81 1 81 0 80 C-0.09502416 77.50507612 -0.12557566 75.03793986 -0.11352539 72.54272461 C-0.11367142 71.76229294 -0.11381744 70.98186127 -0.1139679 70.17778015 C-0.11326858 67.5859402 -0.10547536 64.99417122 -0.09765625 62.40234375 C-0.09579213 60.6101536 -0.0943682 58.81796294 -0.09336853 57.02577209 C-0.08954284 52.29929203 -0.07971212 47.57284248 -0.06866455 42.84637451 C-0.05665719 37.18044414 -0.05204843 31.51450359 -0.04621124 25.84856415 C-0.03650039 17.23235484 -0.0173442 8.61621257 0 0 Z " fill="#0059CE" transform="translate(447,1111)"/>
<path d="M0 0 C6.92250119 4.81623629 12.90688748 11.86516962 15.203125 20.07421875 C17.18185266 32.01725356 15.89277708 42.95903627 8.890625 52.96484375 C7.83734966 54.24027394 6.75317706 55.49077715 5.640625 56.71484375 C5.07730469 57.34390625 4.51398438 57.97296875 3.93359375 58.62109375 C-2.61782338 65.13113351 -11.34854628 67.8032038 -20.484375 68.15234375 C-31.4368025 67.58522776 -40.51488951 63.7729986 -48.17578125 55.83203125 C-54.96199285 47.43005498 -57.05307716 39.07051654 -56.75 28.34375 C-55.68997813 18.49614685 -50.56577155 10.29700958 -43.55859375 3.45703125 C-30.31988748 -7.03046963 -14.80062864 -8.06193182 0 0 Z " fill="#3989F4" transform="translate(234.359375,863.28515625)"/>
<path d="M0 0 C11.26255968 7.61972611 19.4196971 18.17515189 24 31 C24.99 36.445 24.99 36.445 26 42 C-9.64 42 -45.28 42 -82 42 C-77.11201715 23.6700643 -69.84932919 9.32545769 -53.3671875 -0.68359375 C-52.58601563 -1.11800781 -51.80484375 -1.55242187 -51 -2 C-50.17757813 -2.48597656 -49.35515625 -2.97195313 -48.5078125 -3.47265625 C-33.67188589 -11.01670392 -13.89768922 -8.36739573 0 0 Z " fill="#003385" transform="translate(409,1242)"/>
<path d="M0 0 C18.15 0 36.3 0 55 0 C55 27.06 55 54.12 55 82 C45.76 82 36.52 82 27 82 C26.67 78.37 26.34 74.74 26 71 C23.31824344 64.29560861 20.29656911 59.80988108 13.8125 56.25 C9.07376467 54.54469703 9.07376467 54.54469703 0 54 C0 36.18 0 18.36 0 0 Z " fill="#0059CE" transform="translate(307,1110)"/>
<path d="M0 0 C63.03 0 126.06 0 191 0 C191 6.6 191 13.2 191 20 C127.97 20 64.94 20 0 20 C0 13.4 0 6.8 0 0 Z " fill="#0059CF" transform="translate(308,988)"/>
<path d="M0 0 C14.57647361 11.96083461 22.28745378 29.1921044 24.2421875 47.83984375 C25.11199271 60.51630919 25.64780526 73.45643358 17.2421875 83.83984375 C11.76263884 88.66706519 11.76263884 88.66706519 7.4921875 89.15234375 C2.83045035 88.70409979 0.06012289 86.95702336 -3.00219727 83.390625 C-7.18980429 77.30949875 -8.57035809 70.56988704 -10.15335083 63.47219849 C-14.59533068 43.71696596 -19.82591702 25.55604281 -36.7578125 12.83984375 C-44.46412753 8.30671726 -52.70492517 7.68599692 -61.3203125 9.83984375 C-62.4546875 10.16984375 -63.5890625 10.49984375 -64.7578125 10.83984375 C-57.0948029 1.02886933 -46.62937141 -6.617831 -34.16015625 -8.875 C-21.16976298 -10.41694912 -10.51325825 -7.94372388 0 0 Z " fill="#FCFDFE" transform="translate(387.7578125,230.16015625)"/>
<path d="M0 0 C1.00182541 -0.00445668 1.00182541 -0.00445668 2.02388972 -0.0090034 C4.272424 -0.01770764 6.52090514 -0.0192001 8.76945496 -0.02069092 C10.37738153 -0.0253179 11.98530701 -0.03034239 13.5932312 -0.03573608 C17.96934156 -0.04887422 22.34543657 -0.05530786 26.72156358 -0.05974674 C29.45436896 -0.06267536 32.18717011 -0.06677978 34.91997337 -0.07125092 C43.46668981 -0.08492995 52.01339664 -0.09459445 60.56012326 -0.09845281 C70.43261202 -0.10293386 80.30496234 -0.12048223 90.17740899 -0.1494534 C97.8037942 -0.17105795 105.43014043 -0.18115644 113.05655593 -0.18249393 C117.61356178 -0.18354289 122.17043758 -0.18947003 126.72741127 -0.20731354 C131.01443478 -0.22377291 135.30123019 -0.22596016 139.588274 -0.21717453 C141.16165019 -0.21640299 142.73503853 -0.22076226 144.30838394 -0.23063278 C146.45691972 -0.24332106 148.60464381 -0.23749322 150.75317383 -0.22705078 C152.55645252 -0.22925062 152.55645252 -0.22925062 154.39616108 -0.2314949 C158.73738746 0.27771736 161.32493036 1.89830987 164.37956238 4.95294189 C165.96636271 7.87599513 165.90919541 9.85596482 165.56706238 13.14044189 C164.67183919 15.98887932 163.82314432 16.95201879 161.40684414 18.72991371 C157.97519071 20.43442634 155.64234245 20.51775672 151.8180542 20.52139282 C151.15239644 20.52607279 150.48673867 20.53075277 149.80090946 20.53557456 C147.57765488 20.54750946 145.35501844 20.53807366 143.13175964 20.52862549 C141.53486268 20.53269191 139.93796853 20.5380342 138.34107971 20.54455566 C134.00839626 20.55822778 129.67592721 20.55293078 125.34324002 20.54341841 C120.80699669 20.53581996 116.27077164 20.54286806 111.73452759 20.5475769 C104.11576545 20.55303447 96.49709056 20.5458434 88.87834167 20.53155518 C80.07427649 20.51523451 71.27041979 20.5205129 62.46635967 20.53703439 C54.90442611 20.55065622 47.34255524 20.55256534 39.78061336 20.54471838 C35.2655581 20.54004495 30.75060077 20.53940785 26.23555183 20.54932785 C21.98949445 20.55800516 17.74370531 20.55196169 13.49767685 20.53464508 C11.94085447 20.53068406 10.38400944 20.53180771 8.82719612 20.53843307 C6.69884583 20.5466544 4.57135031 20.53632103 2.4430542 20.52139282 C0.6580644 20.51969621 0.6580644 20.51969621 -1.1629858 20.51796532 C-4.8739762 20.08952298 -7.26389285 19.09659027 -10.43293762 17.14044189 C-12.88958959 13.45546394 -13.13380253 10.42072403 -12.43293762 6.14044189 C-8.82383718 0.48618453 -6.47365232 0.01603335 0 0 Z " fill="#003B98" transform="translate(717.4329376220703,1244.8595581054688)"/>
<path d="M0 0 C1.258125 0.01417969 2.51625 0.02835938 3.8125 0.04296875 C5.070625 0.04941406 6.32875 0.05585938 7.625 0.0625 C10.8125 0.23046875 10.8125 0.23046875 12.8125 1.23046875 C12.81614563 1.82657959 12.81979126 2.42269043 12.82354736 3.03686523 C12.86550657 9.26699165 12.93494572 15.49639057 13.02001953 21.72607422 C13.04816532 24.04794014 13.06941149 26.36990074 13.08349609 28.69189453 C13.10501355 32.03857674 13.15171124 35.38412824 13.203125 38.73046875 C13.20435364 39.76099365 13.20558228 40.79151855 13.20684814 41.85327148 C13.33304511 48.12780025 14.17305034 53.00865842 17.8125 58.23046875 C22.86021695 63.03195561 27.19640544 63.63569599 33.94921875 63.58203125 C39.37769898 62.91550571 43.08340737 60.07111574 46.75 56.16796875 C48.68846416 52.63312234 48.9438028 49.27938003 49.00195312 45.29418945 C49.02702942 43.82795891 49.02702942 43.82795891 49.0526123 42.33210754 C49.06618774 41.28407455 49.07976318 40.23604156 49.09375 39.15625 C49.11215942 38.07667526 49.13056885 36.99710052 49.14953613 35.8848114 C49.22825805 31.26372212 49.29618821 26.64248981 49.36474609 22.02124023 C49.41630971 18.64949977 49.4736019 15.27789101 49.53125 11.90625 C49.54482544 10.85214432 49.55840088 9.79803864 49.5723877 8.71199036 C49.59746399 7.25994453 49.59746399 7.25994453 49.62304688 5.77856445 C49.63557495 4.92237015 49.64810303 4.06617584 49.66101074 3.18403625 C49.8125 1.23046875 49.8125 1.23046875 50.8125 0.23046875 C53.32386104 0.13071843 55.80153415 0.09164692 58.3125 0.10546875 C59.01503906 0.10160156 59.71757813 0.09773437 60.44140625 0.09375 C65.68588622 0.10385497 65.68588622 0.10385497 66.8125 1.23046875 C66.92157844 2.83435084 66.96155976 4.44299548 66.97363281 6.05053711 C66.98324036 7.07928452 66.9928479 8.10803192 67.00274658 9.16795349 C67.00699646 10.29073196 67.01124634 11.41351044 67.015625 12.5703125 C67.02132507 13.7215712 67.02702515 14.8728299 67.03289795 16.05897522 C67.04237047 18.50618567 67.04889082 20.953409 67.05273438 23.40063477 C67.06237783 27.12083824 67.09335454 30.84047471 67.125 34.56054688 C67.13153606 36.93879881 67.13678415 39.31705469 67.140625 41.6953125 C67.1529718 42.79987289 67.1653186 43.90443329 67.17803955 45.04246521 C67.14839084 55.48602415 65.34109221 64.58681072 57.8125 72.23046875 C47.67520017 80.7947393 36.77628088 82.2192317 23.8125 81.23046875 C14.37352165 79.814622 7.70467919 75.92830026 1.5625 68.66796875 C-6.44865434 56.64320125 -5.75532221 43.31327424 -5.59912109 29.42456055 C-5.56217069 26.01255987 -5.55810556 22.60163479 -5.55859375 19.18945312 C-5.54877702 17.02212597 -5.53712638 14.85480616 -5.5234375 12.6875 C-5.52121185 11.66678909 -5.51898621 10.64607819 -5.51669312 9.59443665 C-5.50393341 8.65553085 -5.49117371 7.71662506 -5.47802734 6.74926758 C-5.47040375 5.92243973 -5.46278015 5.09561188 -5.45492554 4.24372864 C-4.96802819 0.57821895 -3.49545524 0.25273512 0 0 Z " fill="#FAFBFD" transform="translate(455.1875,242.76953125)"/>
<path d="M0 0 C24.42 0 48.84 0 74 0 C74 16.17 74 32.34 74 49 C65.42 49 56.84 49 48 49 C47.8125 37.875 47.8125 37.875 47.79223633 34.40185547 C47.62539794 27.92201128 47.62539794 27.92201128 44.73046875 22.2890625 C41.15443763 19.29113084 39.59566321 19.3498108 35.15625 19.66796875 C32.48473594 20.0793432 30.33450826 20.61388572 28 22 C26.98412022 25.04763934 26.80195594 27.34718967 26.68359375 30.54296875 C26.64548584 31.51000732 26.60737793 32.4770459 26.56811523 33.47338867 C26.50346069 35.31187378 26.50346069 35.31187378 26.4375 37.1875 C26.293125 41.085625 26.14875 44.98375 26 49 C17.42 49 8.84 49 0 49 C0 32.83 0 16.66 0 0 Z " fill="#015ACF" transform="translate(177,779)"/>
<path d="M0 0 C3.46288217 0.88176579 4.39852555 1.70296154 6.41259766 4.60791016 C7.40069155 6.39934752 8.33937383 8.2186039 9.23681641 10.05712891 C9.75606689 11.02521484 10.27531738 11.99330078 10.81030273 12.99072266 C11.93779643 15.09551077 13.04703727 17.21015393 14.14013672 19.33300781 C16.02423334 22.93568518 17.99906225 26.47376804 20.01025391 30.00634766 C22.65644736 34.67145671 25.30233302 39.33618441 27.90478516 44.02587891 C28.43998779 44.98558594 28.97519043 45.94529297 29.52661133 46.93408203 C30.92431641 49.74462891 30.92431641 49.74462891 32.92431641 55.74462891 C8.83431641 55.74462891 -15.25568359 55.74462891 -40.07568359 55.74462891 C-37.9436853 50.05930011 -35.92116577 45.45564498 -32.76318359 40.43212891 C-31.95291977 39.11284065 -31.14433161 37.79252184 -30.33740234 36.47119141 C-29.75224854 35.5145459 -29.75224854 35.5145459 -29.15527344 34.53857422 C-27.21924761 31.32149648 -25.45658345 28.01466634 -23.67724609 24.70947266 C-21.62749993 20.91494256 -19.54705203 17.13856817 -17.45068359 13.36962891 C-16.891875 12.35171265 -16.891875 12.35171265 -16.32177734 11.31323242 C-15.60260263 10.02444446 -14.86450537 8.74599433 -14.10595703 7.47998047 C-13.19395005 5.94383222 -12.36617496 4.3583582 -11.55224609 2.76806641 C-7.882377 -0.23034399 -4.64669792 -0.21630573 0 0 Z " fill="#003A96" transform="translate(217.07568359375,723.25537109375)"/>
<path d="M0 0 C4.22617886 1.43388211 6.22074374 3.47331574 8.5 7.1875 C9.72200801 10.37152968 10.51007403 13.62635738 11.3125 16.9375 C16.20970097 35.40127121 24.08498485 57.02181532 41.37890625 67.3046875 C45.27760922 69.13629292 49.24601823 69.75342023 53.5 70.1875 C44.16358658 78.59027208 34.53409354 80.60482814 22.41796875 80.39453125 C13.68745931 79.93319825 7.77956558 76.18420226 1.5 70.1875 C-10.38979027 56.41535817 -14.76536093 38.05526896 -13.5 20.1875 C-12.59134743 13.29183659 -10.51521136 7.81847039 -6.25 2.25 C-3.5 0.1875 -3.5 0.1875 0 0 Z " fill="#FBFDFE" transform="translate(256.5,242.8125)"/>
<path d="M0 0 C2.64590014 -0.02684679 5.29153096 -0.04676357 7.9375 -0.0625 C8.69224609 -0.07087891 9.44699219 -0.07925781 10.22460938 -0.08789062 C12.14994313 -0.09652441 14.07535581 -0.05224333 16 0 C17.597485 1.597485 17.125997 3.26591634 17.12698364 5.47937012 C17.12980347 6.44692734 17.13262329 7.41448456 17.13552856 8.41136169 C17.13350433 9.4815303 17.1314801 10.55169891 17.12939453 11.65429688 C17.13114685 12.77449722 17.13289917 13.89469757 17.13470459 15.04884338 C17.13912577 18.77216109 17.13618417 22.49543176 17.1328125 26.21875 C17.13348546 28.79325367 17.13445542 31.36775729 17.13571167 33.94226074 C17.137189 39.34611675 17.13512754 44.7499549 17.13037109 50.15380859 C17.1249285 56.40961472 17.12669117 62.66538826 17.1321975 68.9211936 C17.13727434 74.9285105 17.13674708 80.9358114 17.13381577 86.94313049 C17.13314623 89.50452173 17.13397584 92.0659138 17.13629532 94.62730408 C17.13882027 98.20012653 17.13498346 101.77288543 17.12939453 105.34570312 C17.13141876 106.41587173 17.13344299 107.48604034 17.13552856 108.58863831 C17.13129883 110.03997414 17.13129883 110.03997414 17.12698364 111.52062988 C17.12660662 112.36645882 17.12622959 113.21228775 17.12584114 114.08374786 C17 116 17 116 16 117 C13.48863896 117.09975032 11.01096585 117.13882183 8.5 117.125 C7.79746094 117.12886719 7.09492187 117.13273437 6.37109375 117.13671875 C1.12661378 117.12661378 1.12661378 117.12661378 0 116 C-0.09575309 114.49448826 -0.12188187 112.9844897 -0.12025452 111.47593689 C-0.12162918 110.49852036 -0.12300385 109.52110382 -0.12442017 108.5140686 C-0.12082489 107.43297821 -0.11722961 106.35188782 -0.11352539 105.23803711 C-0.11367142 104.1064769 -0.11381744 102.97491669 -0.1139679 101.80906677 C-0.11326819 98.04847329 -0.10547311 94.28792863 -0.09765625 90.52734375 C-0.09579227 87.92802457 -0.09436828 85.32870503 -0.09336853 82.72938538 C-0.08993341 76.57411423 -0.08204256 70.4188634 -0.07201904 64.26359993 C-0.06085694 57.25766654 -0.05534721 50.25173233 -0.05032361 43.24579227 C-0.03985992 28.83051867 -0.02226108 14.41525996 0 0 Z " fill="#F8FAFD" transform="translate(639,205)"/>
<path d="M0 0 C1.12148437 -0.10828125 1.12148437 -0.10828125 2.265625 -0.21875 C5.70356982 0.77587555 7.34592861 2.43373325 9.5546875 5.20947266 C11.90160574 9.70677391 11.3644619 14.49169073 11.125 19.4375 C11.08439453 21.03561523 11.08439453 21.03561523 11.04296875 22.66601562 C10.97265164 25.27946823 10.87430438 27.88865175 10.75 30.5 C12.45313354 30.47643433 12.45313354 30.47643433 14.19067383 30.45239258 C18.40056269 30.39811968 22.61042059 30.36365963 26.82055664 30.33520508 C28.64320067 30.3201124 30.46580836 30.29963605 32.28833008 30.27368164 C34.907155 30.23731897 37.52550007 30.22027876 40.14453125 30.20703125 C40.96025101 30.19154739 41.77597076 30.17606354 42.6164093 30.16011047 C44.92114258 30.15942383 44.92114258 30.15942383 48.75 30.5 C49.74 31.49 50.73 32.48 51.75 33.5 C51.255 38.45 51.255 38.45 50.75 43.5 C16.43 43.5 -17.89 43.5 -53.25 43.5 C-53.25 33.5 -53.25 33.5 -52.25 31.5 C-48.36538953 30.20512984 -44.69116044 30.3767396 -40.64453125 30.40234375 C-39.80532639 30.4037587 -38.96612152 30.40517365 -38.10148621 30.40663147 C-35.42178784 30.41222785 -32.7421731 30.42477965 -30.0625 30.4375 C-28.24544392 30.44251547 -26.42838652 30.44707829 -24.61132812 30.45117188 C-20.15751987 30.46219609 -15.70377411 30.47945822 -11.25 30.5 C-11.27618408 29.79915283 -11.30236816 29.09830566 -11.3293457 28.3762207 C-11.4335354 25.1885435 -11.49839583 22.00122474 -11.5625 18.8125 C-11.60439453 17.70970703 -11.64628906 16.60691406 -11.68945312 15.47070312 C-11.81025943 7.47332553 -11.81025943 7.47332553 -10.18505859 4.64990234 C-7.11911069 1.52090153 -4.2693922 0.29043484 0 0 Z " fill="#00368E" transform="translate(214.25,797.5)"/>
<path d="M0 0 C7.21266937 3.60633468 11.25360209 7.81427846 14.3125 15.3125 C16.36975514 21.48426543 16.15190073 28.12361077 13.625 34.125 C10.56531471 40.09511764 7.00995121 44.79546707 0.75 47.6171875 C-5.61529297 49.43292812 -12.93723639 49.48187558 -19.0625 46.8125 C-25.64986815 42.84336697 -30.21822288 37.00094413 -32.25 29.59765625 C-34.03063249 20.29703118 -31.66497799 13.86628986 -26.5625 6.0625 C-18.82468043 -1.33889263 -10.0452318 -4.09872334 0 0 Z " fill="#0244AD" transform="translate(586.6875,258.6875)"/>
<path d="M0 0 C5.97267381 3.48243848 9.77588553 9.1104474 12.3984375 15.3984375 C13.25973833 22.52162811 13.67060321 30.38010335 9.80078125 36.6875 C5.15673421 42.35349611 0.03585342 46.84834403 -7.43359375 47.734375 C-15.09181215 47.83474483 -20.56911994 47.10938692 -26.31640625 41.8203125 C-33.15040415 34.40149815 -34.18078359 27.94865355 -33.9453125 18 C-33.31688331 11.41577597 -31.08425962 7.53553483 -26.2890625 3.0859375 C-17.76698952 -3.56853225 -9.68857157 -4.20334951 0 0 Z " fill="#0143AD" transform="translate(721.6015625,259.6015625)"/>
<path d="M0 0 C6.46243745 0 7.11942378 0.2991895 11.8125 4.125 C12.63729858 4.78846436 12.63729858 4.78846436 13.47875977 5.46533203 C15.33127115 6.96262699 17.16518768 8.48108477 19 10 C20.37681047 11.12076739 21.75444026 12.24052891 23.1328125 13.359375 C30.54162115 19.39652658 37.85403633 25.54059595 45.08447266 31.79003906 C49.63719798 35.71824605 54.28574319 39.50951209 58.98828125 43.2578125 C61 45 61 45 62 47 C55.25988536 47.16992568 48.51957933 47.32947352 41.77905273 47.48217773 C39.49123718 47.5351879 37.20347319 47.59047875 34.91577148 47.64819336 C31.60672121 47.73126273 28.29756555 47.8058286 24.98828125 47.87890625 C23.48120354 47.91945885 23.48120354 47.91945885 21.94367981 47.96083069 C14.4859603 48.1137563 7.5279916 47.57907628 0 47 C0 31.49 0 15.98 0 0 Z " fill="#003994" transform="translate(763,689)"/>
<path d="M0 0 C3.19001993 3.21374445 3.40464277 5.81852983 3.50073242 10.24487305 C3.53467606 11.52054642 3.56861969 12.79621979 3.60359192 14.11054993 C3.62560493 15.51509763 3.64704607 16.91965438 3.66796875 18.32421875 C3.69979578 19.79638109 3.73254607 21.26852372 3.76615906 22.74064636 C3.86797239 27.49348201 3.93584119 32.24652965 4 37 C4.02328097 38.59588644 4.04657601 40.19177267 4.06988525 41.78765869 C4.20555705 51.48709102 4.271527 61.18567648 4.29516602 70.88598633 C4.30422452 74.22242383 4.32561952 77.55847122 4.35668945 80.89477539 C4.39499562 85.01124209 4.41390745 89.12735538 4.41844749 93.24399376 C4.42329618 94.7897774 4.43486084 96.33555608 4.45348549 97.88123512 C4.47772939 100.01346348 4.47694867 102.14428865 4.4699707 104.27661133 C4.47583694 105.48279617 4.48170319 106.68898102 4.48774719 107.93171692 C3.9027856 111.61154897 2.98631404 112.82723443 0 115 C-3.125 114.9375 -3.125 114.9375 -6 114 C-8.3374671 110.49379935 -8.24613824 109.09984147 -8.23950195 104.95556641 C-8.24323318 103.71062408 -8.24696442 102.46568176 -8.25080872 101.18301392 C-8.24850565 100.51815601 -8.24620258 99.85329811 -8.24382973 99.168293 C-8.23823135 97.08297401 -8.24740325 94.9982102 -8.2610321 92.91293335 C-8.29813771 86.98489936 -8.31670702 81.05705314 -8.30541992 75.12890625 C-8.29955923 71.50063668 -8.31787498 67.87314752 -8.35130882 64.24503708 C-8.35924964 62.86481279 -8.35800353 61.48450315 -8.34728432 60.10429764 C-8.3329147 58.17064137 -8.35193494 56.23682492 -8.37231445 54.30322266 C-8.37294388 53.2041861 -8.3735733 52.10514954 -8.3742218 50.97280884 C-9.2002668 47.04861673 -11.00575827 45.57252779 -14 43 C-15.8125 41.3125 -15.8125 41.3125 -17 40 C-17 39.34 -17 38.68 -17 38 C-17.57621094 37.7628125 -18.15242187 37.525625 -18.74609375 37.28125 C-21.47706793 35.72880714 -23.04222936 33.89785495 -25.0625 31.5 C-27.33333371 28.81509872 -29.05207998 26.96528001 -32 25 C-32.4375 22.625 -32.4375 22.625 -32 20 C-30.3125 17.625 -30.3125 17.625 -28 16 C-24.59249632 15.91262811 -23.28796231 16.7440335 -20.75 19 C-19.83227253 19.99902656 -18.91581728 20.99922206 -18 22 C-16.44858966 23.56833974 -14.89084124 25.13042533 -13.328125 26.6875 C-12.51762695 27.49574219 -11.70712891 28.30398438 -10.87207031 29.13671875 C-10.25428711 29.75160156 -9.63650391 30.36648438 -9 31 C-8.98541748 30.16750732 -8.97083496 29.33501465 -8.95581055 28.47729492 C-8.8947137 25.38510347 -8.82055444 22.29357918 -8.73754883 19.2019043 C-8.68798681 17.2070937 -8.65348867 15.21192743 -8.61914062 13.21679688 C-8.58369141 11.96318359 -8.54824219 10.70957031 -8.51171875 9.41796875 C-8.48553467 8.26063232 -8.45935059 7.1032959 -8.43237305 5.91088867 C-8 3 -8 3 -6.62426758 1.1262207 C-4.26101418 -0.51239164 -2.8046703 -0.4908173 0 0 Z " fill="#003282" transform="translate(157,1105)"/>
<path d="M0 0 C33.99 0 67.98 0 103 0 C103 3.63 103 7.26 103 11 C69.01 11 35.02 11 0 11 C0 7.37 0 3.74 0 0 Z " fill="#003283" transform="translate(661,982)"/>
<path d="M0 0 C33.99 0 67.98 0 103 0 C103 3.63 103 7.26 103 11 C69.01 11 35.02 11 0 11 C0 7.37 0 3.74 0 0 Z " fill="#003283" transform="translate(661,943)"/>
<path d="M0 0 C6.26441778 3.7213208 10.13627823 9.00529112 12 16 C13.72913222 25.22203851 9.64434545 32.31944884 4.76953125 39.91796875 C1.7113233 43.97818341 -2.3839441 46.94529219 -7 49 C-9.75 49.125 -9.75 49.125 -12 48 C-18.34399233 41.30356365 -17.40049958 33.87098207 -17.28515625 25.1875 C-16.96787122 16.42469334 -14.7005209 7.84062508 -9 1 C-5.73952371 -0.63023814 -3.62198965 -0.4673535 0 0 Z " fill="#FBFCFD" transform="translate(320,259)"/>
<path d="M0 0 C33.99 0 67.98 0 103 0 C103 3.3 103 6.6 103 10 C69.01 10 35.02 10 0 10 C0 6.7 0 3.4 0 0 Z " fill="#003285" transform="translate(661,905)"/>
<path d="M0 0 C33.99 0 67.98 0 103 0 C103 3.3 103 6.6 103 10 C69.01 10 35.02 10 0 10 C0 6.7 0 3.4 0 0 Z " fill="#003282" transform="translate(661,866)"/>
<path d="M0 0 C33.99 0 67.98 0 103 0 C103 3.3 103 6.6 103 10 C69.01 10 35.02 10 0 10 C0 6.7 0 3.4 0 0 Z " fill="#003385" transform="translate(661,827)"/>
<path d="M0 0 C33.99 0 67.98 0 103 0 C103 3.3 103 6.6 103 10 C69.01 10 35.02 10 0 10 C0 6.7 0 3.4 0 0 Z " fill="#003283" transform="translate(661,788)"/>
<path d="M0 0 C0.84954254 -0.00807175 1.69908508 -0.01614349 2.57437134 -0.02445984 C4.37150033 -0.03828423 6.16865539 -0.04901374 7.96582031 -0.05688477 C10.70949096 -0.07411156 13.45196058 -0.11801275 16.1953125 -0.16210938 C17.94269949 -0.17223564 19.6900967 -0.18075195 21.4375 -0.1875 C22.2553598 -0.20500809 23.0732196 -0.22251617 23.91586304 -0.24055481 C27.92747374 -0.22532775 29.87522103 -0.06419908 33.34619141 2.13989258 C35.92104618 4.83417998 36.30318696 5.73517559 36.6640625 9.48828125 C36.29724005 13.89015062 35.1551139 15.87401957 32.3515625 19.23828125 C26.14360976 21.30759883 18.88264967 20.54628178 12.36499023 20.58837891 C10.48628346 20.60493425 8.60763956 20.63221886 6.72924805 20.67041016 C4.01317857 20.72530918 1.29858157 20.74707123 -1.41796875 20.76171875 C-2.66982719 20.79572281 -2.66982719 20.79572281 -3.94697571 20.83041382 C-8.14834325 20.81527009 -10.83698748 20.5242517 -14.17773438 17.84814453 C-16.6484375 15.23828125 -16.6484375 15.23828125 -17.41015625 12.95703125 C-17.2658987 8.64448963 -17.05818247 6.76984229 -14.3359375 3.23828125 C-9.74887771 -0.17534464 -5.49978394 0.04942952 0 0 Z " fill="#003B99" transform="translate(594.6484375,1288.76171875)"/>
<path d="M0 0 C27.06 0 54.12 0 82 0 C80.13214324 3.73571353 78.07220103 7.3736482 76 11 C50.92 11 25.84 11 0 11 C0 7.37 0 3.74 0 0 Z " fill="#003183" transform="translate(661,1020)"/>
<path d="M0 0 C18.15 0 36.3 0 55 0 C53 7 53 7 52 10 C34.84 10 17.68 10 0 10 C0 6.7 0 3.4 0 0 Z " fill="#003182" transform="translate(661,1059)"/>
<path d="M0 0 C1.69746399 1.28022766 1.69746399 1.28022766 3 3 C3.26167679 5.94184741 3.34873921 8.6673721 3.29296875 11.60546875 C3.28872391 12.44467361 3.28447906 13.28387848 3.28010559 14.14851379 C3.26331464 16.82850245 3.2256623 19.5077387 3.1875 22.1875 C3.17245367 24.00454643 3.15876518 25.82160465 3.14648438 27.63867188 C3.11340982 32.09273776 3.06162513 36.54624132 3 41 C-3.435 41.495 -3.435 41.495 -10 42 C-10.07402368 36.34003584 -10.12854173 30.68035189 -10.16479492 25.02001953 C-10.17990395 23.09353733 -10.20039214 21.16708965 -10.22631836 19.24072266 C-10.26260925 16.47549943 -10.27970479 13.71072996 -10.29296875 10.9453125 C-10.30845261 10.0806839 -10.32393646 9.2160553 -10.33988953 8.32522583 C-10.34057617 5.89892578 -10.34057617 5.89892578 -10 2 C-6.30513897 -0.46324069 -4.36706908 -0.38991688 0 0 Z " fill="#015BD1" transform="translate(217,683)"/>
<path d="M0 0 C3.14581423 -0.02888514 6.29159469 -0.04675923 9.4375 -0.0625 C10.33533203 -0.07087891 11.23316406 -0.07925781 12.15820312 -0.08789062 C13.01220703 -0.09111328 13.86621094 -0.09433594 14.74609375 -0.09765625 C15.93223267 -0.10551147 15.93223267 -0.10551147 17.14233398 -0.11352539 C19 0 19 0 20 1 C20.09899523 2.54955559 20.13079524 4.10353673 20.1328125 5.65625 C20.13474609 7.06583984 20.13474609 7.06583984 20.13671875 8.50390625 C20.13285156 9.49261719 20.12898437 10.48132812 20.125 11.5 C20.13080078 12.98306641 20.13080078 12.98306641 20.13671875 14.49609375 C20.13542969 15.43582031 20.13414062 16.37554688 20.1328125 17.34375 C20.13168457 18.21193359 20.13055664 19.08011719 20.12939453 19.97460938 C20 22 20 22 19 23 C17.65732587 23.08631874 16.31025678 23.10706473 14.96484375 23.09765625 C14.15595703 23.09443359 13.34707031 23.09121094 12.51367188 23.08789062 C11.66353516 23.07951172 10.81339844 23.07113281 9.9375 23.0625 C9.08349609 23.05798828 8.22949219 23.05347656 7.34960938 23.04882812 C5.23304337 23.03700373 3.11651315 23.01906769 1 23 C-0.2263757 20.54724859 -0.11415314 18.9494219 -0.09765625 16.2109375 C-0.09443359 15.26992187 -0.09121094 14.32890625 -0.08789062 13.359375 C-0.07951172 12.37453125 -0.07113281 11.3896875 -0.0625 10.375 C-0.05798828 9.38242188 -0.05347656 8.38984375 -0.04882812 7.3671875 C-0.03702145 4.9113984 -0.020554 2.45572896 0 0 Z " fill="#003790" transform="translate(742,1143)"/>
<path d="M0 0 C1.10021484 -0.01836914 1.10021484 -0.01836914 2.22265625 -0.03710938 C6.06063514 -0.04759566 7.85847074 0.00981383 11.125 2.1875 C11.48144531 4.23461914 11.48144531 4.23461914 11.453125 6.72265625 C11.44796875 7.61404297 11.4428125 8.50542969 11.4375 9.42382812 C11.416875 10.35646484 11.39625 11.28910156 11.375 12.25 C11.36984375 13.18650391 11.3646875 14.12300781 11.359375 15.08789062 C11.27890339 22.03359661 11.27890339 22.03359661 10.125 23.1875 C8.78232587 23.27381874 7.43525678 23.29456473 6.08984375 23.28515625 C5.28095703 23.28193359 4.47207031 23.27871094 3.63867188 23.27539062 C2.78853516 23.26701172 1.93839844 23.25863281 1.0625 23.25 C0.20849609 23.24548828 -0.64550781 23.24097656 -1.52539062 23.23632812 C-3.64195663 23.22450373 -5.75848685 23.20656769 -7.875 23.1875 C-8.80790869 20.38877394 -9.00359447 18.66761055 -9.0078125 15.7734375 C-9.00910156 14.93039062 -9.01039063 14.08734375 -9.01171875 13.21875 C-9.00785156 12.3421875 -9.00398437 11.465625 -9 10.5625 C-9.00386719 9.67820312 -9.00773438 8.79390625 -9.01171875 7.8828125 C-9.01042969 7.04234375 -9.00914062 6.201875 -9.0078125 5.3359375 C-9.00668457 4.56427246 -9.00555664 3.79260742 -9.00439453 2.99755859 C-8.67964868 -1.54520689 -3.48162657 0.0030275 0 0 Z " fill="#003892" transform="translate(790.875,1096.8125)"/>
<path d="M0 0 C2.4375 -0.375 2.4375 -0.375 5 0 C7.15243072 1.61528223 7.92048831 2.46613577 8.32128906 5.15722656 C8.30291992 5.97674805 8.28455078 6.79626953 8.265625 7.640625 C8.26949219 8.54683594 8.27335938 9.45304688 8.27734375 10.38671875 C8.25926173 12.28016424 8.22566283 14.17353156 8.17578125 16.06640625 C8.19198126 21.45414567 8.19198126 21.45414567 10.58764648 26.13354492 C12.46435756 28.00237423 12.46435756 28.00237423 14.44018555 29.57202148 C16 31 16 31 16.5625 33.8125 C16 36 16 36 14 38 C11.5 38.25 11.5 38.25 9 38 C8.34 37.34 7.68 36.68 7 36 C4.99461671 35.77717963 2.98700173 35.55812533 0.97265625 35.44140625 C-1.57804719 34.87065479 -2.47836142 34.11521896 -4 32 C-4.328125 29.7734375 -4.328125 29.7734375 -4.25 27.375 C-4.23453125 26.57835937 -4.2190625 25.78171875 -4.203125 24.9609375 C-4 23 -4 23 -3 22 C-2.86776232 20.62108277 -2.79684002 19.2361405 -2.75390625 17.8515625 C-2.72103516 17.01109375 -2.68816406 16.170625 -2.65429688 15.3046875 C-2.59337073 13.52616245 -2.53604626 11.74751018 -2.48242188 9.96875 C-2.44826172 9.12570312 -2.41410156 8.28265625 -2.37890625 7.4140625 C-2.3538501 6.6401416 -2.32879395 5.8662207 -2.30297852 5.06884766 C-2 3 -2 3 0 0 Z " fill="#00358A" transform="translate(210,867)"/>
<path d="M0 0 C1.18613892 0.00785522 1.18613892 0.00785522 2.39624023 0.01586914 C3.16524658 0.0183667 3.93425293 0.02086426 4.7265625 0.0234375 C5.70939209 0.0325415 6.69222168 0.04164551 7.70483398 0.05102539 C12.37639648 0.08196289 12.37639648 0.08196289 17.14233398 0.11352539 C17.14233398 7.37352539 17.14233398 14.63352539 17.14233398 22.11352539 C14.02795898 22.13415039 10.91358398 22.15477539 7.70483398 22.17602539 C6.2305896 22.1896814 6.2305896 22.1896814 4.7265625 22.20361328 C3.95755615 22.20611084 3.1885498 22.2086084 2.39624023 22.21118164 C1.60548096 22.21641846 0.81472168 22.22165527 0 22.22705078 C-1.85766602 22.11352539 -1.85766602 22.11352539 -2.85766602 21.11352539 C-2.95647399 19.63699875 -2.98845847 18.15585303 -2.99047852 16.67602539 C-2.99176758 15.78141602 -2.99305664 14.88680664 -2.99438477 13.96508789 C-2.98858398 12.55356445 -2.98858398 12.55356445 -2.98266602 11.11352539 C-2.9865332 10.17250977 -2.99040039 9.23149414 -2.99438477 8.26196289 C-2.9930957 7.36735352 -2.99180664 6.47274414 -2.99047852 5.55102539 C-2.98878662 4.3115918 -2.98878662 4.3115918 -2.98706055 3.04711914 C-2.81483133 0.47342978 -2.57895031 0.1576044 0 0 Z " fill="#003791" transform="translate(744.857666015625,1097.886474609375)"/>
<path d="M0 0 C4.393125 -0.0309375 4.393125 -0.0309375 8.875 -0.0625 C9.79651855 -0.071604 10.71803711 -0.08070801 11.66748047 -0.09008789 C12.39338379 -0.09258545 13.11928711 -0.09508301 13.8671875 -0.09765625 C14.98262939 -0.10551147 14.98262939 -0.10551147 16.12060547 -0.11352539 C18 0 18 0 20 1 C20.02888146 4.31248187 20.04675799 7.62493167 20.0625 10.9375 C20.07087891 11.88302734 20.07925781 12.82855469 20.08789062 13.80273438 C20.09272461 15.15141602 20.09272461 15.15141602 20.09765625 16.52734375 C20.10551147 17.77632446 20.10551147 17.77632446 20.11352539 19.05053711 C20 21 20 21 19 22 C17.58429877 22.08651611 16.164405 22.10704904 14.74609375 22.09765625 C13.9770874 22.09515869 13.20808105 22.09266113 12.41577148 22.09008789 C11.43294189 22.08098389 10.4501123 22.07187988 9.4375 22.0625 C4.7659375 22.0315625 4.7659375 22.0315625 0 22 C0 14.74 0 7.48 0 0 Z " fill="#003790" transform="translate(782,1143)"/>
<path d="M0 0 C0.33 2.64 0.66 5.28 1 8 C-2.6642778 11.04402244 -6.74793603 12.98653761 -11 15.0625 C-11.7115625 15.41376953 -12.423125 15.76503906 -13.15625 16.12695312 C-14.51773394 16.79880481 -15.88054265 17.46798083 -17.24487305 18.1340332 C-18.61852231 18.8117817 -19.97823475 19.5177926 -21.33203125 20.234375 C-23.62318791 21.28605347 -25.51487504 21.20149662 -28 21 C-29 20 -29 20 -29.328125 17.15234375 C-29 14 -29 14 -27.234375 12.12890625 C-26.00460937 11.35353516 -26.00460937 11.35353516 -24.75 10.5625 C-23.84636719 9.98371094 -22.94273437 9.40492188 -22.01171875 8.80859375 C-21.01785156 8.21175781 -20.02398438 7.61492187 -19 7 C-17.93394531 6.35160156 -16.86789062 5.70320312 -15.76953125 5.03515625 C-4.80972126 -1.49267211 -4.80972126 -1.49267211 0 0 Z " fill="#F5F8FB" transform="translate(735,212)"/>
<path d="M0 0 C0.33 0 0.66 0 1 0 C0.99476318 0.79696289 0.98952637 1.59392578 0.98413086 2.41503906 C0.963341 6.02668469 0.95033339 9.63831771 0.9375 13.25 C0.92912109 14.50425781 0.92074219 15.75851562 0.91210938 17.05078125 C0.90888672 18.25605469 0.90566406 19.46132812 0.90234375 20.703125 C0.89710693 21.81333008 0.89187012 22.92353516 0.88647461 24.06738281 C0.89615677 26.91503725 0.89615677 26.91503725 1.56860352 29.26855469 C2 31 2 31 1 33 C1.165 33.94875 1.33 34.8975 1.5 35.875 C2 39 2 39 1.53735352 40.81542969 C0.84812719 43.61742749 0.88820275 46.19336042 0.90234375 49.078125 C0.90556641 50.23828125 0.90878906 51.3984375 0.91210938 52.59375 C0.92048828 53.8003125 0.92886719 55.006875 0.9375 56.25 C0.94201172 57.47203125 0.94652344 58.6940625 0.95117188 59.953125 C0.96295185 62.96879946 0.97940147 65.98437498 1 69 C0.01 69.495 0.01 69.495 -1 70 C-1.02312566 61.02079223 -1.04091623 52.04159463 -1.05181217 43.06236362 C-1.05704051 38.89337172 -1.06413726 34.72440013 -1.07543945 30.55541992 C-1.08627008 26.53542314 -1.09227721 22.51544595 -1.09487724 18.49543571 C-1.09673118 16.95837025 -1.10035119 15.42130591 -1.10573006 13.88424873 C-1.11294284 11.73864513 -1.11399084 9.59312345 -1.11352539 7.44750977 C-1.115746 6.22395279 -1.11796661 5.00039581 -1.12025452 3.73976135 C-1 1 -1 1 0 0 Z " fill="#002D7B" transform="translate(363,1117)"/>
<path d="M0 0 C0.33 0 0.66 0 1 0 C1.07626922 6.85010622 1.12869186 13.7001023 1.16479492 20.55053711 C1.17985089 22.87935478 1.20030004 25.20814424 1.22631836 27.53686523 C1.26284133 30.89053321 1.27975871 34.24382518 1.29296875 37.59765625 C1.30845261 38.63334244 1.32393646 39.66902863 1.33988953 40.73609924 C1.34124404 46.59720038 0.90153376 50.85342599 -2 56 C-2.99 56.495 -2.99 56.495 -4 57 C-4 55.68 -4 54.36 -4 53 C-3.01 52.505 -3.01 52.505 -2 52 C-1.98969254 51.40753479 -1.97938507 50.81506958 -1.96876526 50.20465088 C-1.86061542 44.04029494 -1.74602421 37.87608265 -1.62768555 31.71191406 C-1.58436394 29.41116338 -1.54268687 27.11038112 -1.50268555 24.80957031 C-1.44491605 21.50315839 -1.38124051 18.196905 -1.31640625 14.890625 C-1.29969376 13.86132874 -1.28298126 12.83203247 -1.26576233 11.77154541 C-1.24581711 10.81085144 -1.22587189 9.85015747 -1.20532227 8.86035156 C-1.18977798 8.01651917 -1.1742337 7.17268677 -1.15821838 6.30328369 C-1.00592429 4.08624356 -0.61217912 2.13149621 0 0 Z " fill="#0231A6" transform="translate(504,244)"/>
<path d="M0 0 C0.33 0 0.66 0 1 0 C1.05410687 1.77049689 1.09284119 3.54146849 1.125 5.3125 C1.14820313 6.29863281 1.17140625 7.28476563 1.1953125 8.30078125 C1 11 1 11 -1 14 C-3.828125 14.2578125 -3.828125 14.2578125 -7.25 14.125 C-10.63444326 14.00802615 -13.65031507 13.9350062 -16.984375 14.5546875 C-20.56507081 15.0834431 -23.41191509 14.51567452 -27 14 C-32.15270238 13.8980663 -37.30681027 14.02544761 -42.45898438 14.12695312 C-44.01649414 14.14338867 -44.01649414 14.14338867 -45.60546875 14.16015625 C-47.01542114 14.18541382 -47.01542114 14.18541382 -48.45385742 14.21118164 C-51 14 -51 14 -55 12 C-37.18 12 -19.36 12 -1 12 C-1 9.03 -1 6.06 -1 3 C-0.67 2.01 -0.34 1.02 0 0 Z " fill="#002E7C" transform="translate(363,1085)"/>
<path d="M0 0 C-2.29422699 1.94126899 -4.04813634 3.01536266 -6.9375 3.9375 C-10.35514032 5.12321195 -12.4115465 6.48550232 -15 9 C-15.65213292 11.02463255 -15.65213292 11.02463255 -16 13 C-16.47824219 13.36609375 -16.95648437 13.7321875 -17.44921875 14.109375 C-19.87438043 17.06599528 -19.83700933 20.50574019 -20.1875 24.1875 C-20.26935547 24.93708984 -20.35121094 25.68667969 -20.43554688 26.45898438 C-20.63540784 28.30475918 -20.81926538 30.15225433 -21 32 C-21.33 32 -21.66 32 -22 32 C-22.80094438 14.91318662 -22.80094438 14.91318662 -18 9 C-13.1194464 3.84764802 -7.42215232 -0.65489579 0 0 Z " fill="#002A72" transform="translate(696,1107)"/>
<path d="M0 0 C2.86095641 1.2824977 5.11365918 2.45343989 7 5 C7.3125 7.5625 7.3125 7.5625 7 10 C5 12 5 12 2.5 12.25 C0 12 0 12 -2 10 C-3.90744816 9.61550947 -3.90744816 9.61550947 -6 9.5 C-9.77777778 9.22222222 -9.77777778 9.22222222 -12 7 C-11.67 6.01 -11.34 5.02 -11 4 C-10.67 4.66 -10.34 5.32 -10 6 C-7.97918451 6.22815659 -5.95789197 6.45358527 -3.93359375 6.6484375 C-1.4820658 7.09416985 -0.5595143 8.1121669 1 10 C1.99 10 2.98 10 4 10 C4.33425735 7.62625139 4.33425735 7.62625139 4 5 C2.05990478 3.29467677 2.05990478 3.29467677 0 2 C0 1.34 0 0.68 0 0 Z " fill="#002E7F" transform="translate(219,893)"/>
<path d="M0 0 C4.23852368 0.34600193 7.15925827 0.8992855 10.8125 3.125 C11.864375 3.74375 12.91625 4.3625 14 5 C14.66 4.67 15.32 4.34 16 4 C16 5.98 16 7.96 16 10 C15.5153125 9.60167969 15.030625 9.20335937 14.53125 8.79296875 C9.84798669 5.09138948 5.6824452 2.82650024 0 1 C0 0.67 0 0.34 0 0 Z " fill="#1644AC" transform="translate(587,242)"/>
<path d="M0 0 C0.33 0 0.66 0 1 0 C1 3.3 1 6.6 1 10 C0.01 10 -0.98 10 -2 10 C-2.25 3.375 -2.25 3.375 0 0 Z " fill="#003B98" transform="translate(635,1026)"/>
<path d="M0 0 C2 1 2 1 2 1 Z M0 1 C0 1.66 0 2.32 0 3 C-1.36125 3.6496875 -1.36125 3.6496875 -2.75 4.3125 C-5.43218449 5.70517271 -7.66139605 7.11112757 -10 9 C-10 8.01 -10 7.02 -10 6 C-8.3203125 4.61328125 -8.3203125 4.61328125 -6.125 3.3125 C-5.40570312 2.87550781 -4.68640625 2.43851563 -3.9453125 1.98828125 C-2 1 -2 1 0 1 Z " fill="#002E7A" transform="translate(830,1176)"/>
<path d="M0 0 C0.66 0 1.32 0 2 0 C0.33248852 3.94139078 -2.22710649 6.7892812 -5 10 C-5.66 9.67 -6.32 9.34 -7 9 C-5.88266271 7.49428343 -4.75589965 5.99555708 -3.625 4.5 C-2.99851563 3.6646875 -2.37203125 2.829375 -1.7265625 1.96875 C-1.15679687 1.3190625 -0.58703125 0.669375 0 0 Z " fill="#0040A5" transform="translate(199,1143)"/>
<path d="M0 0 C1.00692101 3.02076303 1.39261106 4.8591115 1 8 C-1 9.8125 -1 9.8125 -3 11 C-2.53199289 6.94393835 -2.12046792 3.53411321 0 0 Z " fill="#002D7A" transform="translate(367,1073)"/>
<path d="M0 0 C0.66 0 1.32 0 2 0 C2 2.64 2 5.28 2 8 C1.34 7.67 0.68 7.34 0 7 C0 6.01 0 5.02 0 4 C-0.66 3.34 -1.32 2.68 -2 2 C-1.34 1.34 -0.68 0.68 0 0 Z " fill="#00358A" transform="translate(517,1058)"/>
</svg>
