<?xml version="1.0" encoding="UTF-8"?>
<svg version="1.1" xmlns="http://www.w3.org/2000/svg" width="1024" height="1536">
<path d="M0 0 C337.92 0 675.84 0 1024 0 C1024 506.88 1024 1013.76 1024 1536 C686.08 1536 348.16 1536 0 1536 C0 1029.12 0 522.24 0 0 Z " fill="#3421B4" transform="translate(0,0)"/>
<path d="M0 0 C337.92 0 675.84 0 1024 0 C1024 141.24 1024 282.48 1024 428 C1021.9192771 430.0807229 1017.57112518 429.3720495 1014.6875 429.5 C1013.14957075 429.56926454 1011.61179608 429.64206945 1010.07421875 429.71875 C1009.38932373 429.74904297 1008.70442871 429.77933594 1007.9987793 429.81054688 C1005.91880417 430.0076961 1004.01126835 430.44408081 1002 431 C1002.01160156 431.77085937 1002.02320313 432.54171875 1002.03515625 433.3359375 C1002.04417969 434.33882813 1002.05320312 435.34171875 1002.0625 436.375 C1002.07410156 437.37273437 1002.08570313 438.37046875 1002.09765625 439.3984375 C1002 442 1002 442 1001 444 C1000.89632139 445.45679137 1000.85353219 446.91814176 1000.84178162 448.37857056 C1000.8319928 449.29846268 1000.82220398 450.2183548 1000.81211853 451.16612244 C1000.80636307 452.17816238 1000.8006076 453.19020233 1000.79467773 454.23291016 C1000.77982834 455.82805702 1000.77982834 455.82805702 1000.76467896 457.45542908 C1000.7329992 460.98328395 1000.70828093 464.51115232 1000.68359375 468.0390625 C1000.66302982 470.48001462 1000.6420335 472.92096314 1000.62062073 475.36190796 C1000.56534217 481.79643845 1000.51595842 488.23100138 1000.46777344 494.66558838 C1000.4176006 501.22760923 1000.36189255 507.78958279 1000.30664062 514.3515625 C1000.19898831 527.23433616 1000.09807036 540.11714983 1000 553 C986.14 553 972.28 553 958 553 C958 547.39 958 541.78 958 536 C940.51 536 923.02 536 905 536 C905 594.08 905 652.16 905 712 C891.14 711.67 877.28 711.34 863 711 C863.00523682 706.2660791 863.01047363 701.5321582 863.01586914 696.65478516 C863.03244378 681.00859107 863.04353774 665.36239663 863.05181217 649.71619606 C863.05696225 640.23055193 863.06398038 630.74491613 863.07543945 621.25927734 C863.08542567 612.98888213 863.09186279 604.71849294 863.09408849 596.44809186 C863.09538892 592.07147243 863.09843236 587.69487026 863.10573006 583.31825638 C863.11255245 579.19299949 863.11460437 575.06776688 863.11310768 570.94250488 C863.11338122 569.43412519 863.11534926 567.92574463 863.11920547 566.41736984 C863.13672735 559.20564958 863.10112019 552.08977689 862.11710262 544.93065453 C862 543 862 543 863 540 C863.07051114 537.26134713 863.09357765 534.54972412 863.0625 531.8125 C863.05573242 530.68811523 863.05573242 530.68811523 863.04882812 529.54101562 C863.03706354 527.69397617 863.01912865 525.84697787 863 524 C859.79168609 523.9707517 856.58340693 523.95311811 853.375 523.9375 C852.47136719 523.92912109 851.56773437 523.92074219 850.63671875 523.91210938 C846.85832206 523.89831961 843.33713274 523.94381121 839.6015625 524.56640625 C836.87503587 525.02082736 835.62216093 524.66782887 833 524 C831.63564144 523.92178435 830.26792753 523.89210646 828.90136719 523.90234375 C828.09560242 523.90564697 827.28983765 523.9089502 826.45965576 523.91235352 C825.58093811 523.92065186 824.70222046 523.9289502 823.796875 523.9375 C821.8411459 523.94532908 819.88541673 523.95314084 817.9296875 523.9609375 C814.92283509 523.97891993 811.91600743 523.9988016 808.90917969 524.02050781 C784.9188849 524.17817492 761.00507319 523.50010569 737 523 C737 483.07 737 443.14 737 402 C728.75 402 720.5 402 712 402 C712 384.84 712 367.68 712 350 C705.73 350 699.46 350 693 350 C693 333.17 693 316.34 693 299 C687.39 299 681.78 299 676 299 C676 292.07 676 285.14 676 278 C671.71 278 667.42 278 663 278 C663 253.58 663 229.16 663 204 C661.68 204 660.36 204 659 204 C659 228.42 659 252.84 659 278 C654.71 278 650.42 278 646 278 C646 284.93 646 291.86 646 299 C640.39 299 634.78 299 629 299 C629 315.83 629 332.66 629 350 C622.73 350 616.46 350 610 350 C610 367.16 610 384.32 610 402 C601.75 402 593.5 402 585 402 C585 486.15 585 570.3 585 657 C573.45 657 561.9 657 550 657 C550 640.17 550 623.34 550 606 C513.7 606 477.4 606 440 606 C440 674.31 440 742.62 440 813 C424.16 813 408.32 813 392 813 C392 760.53 392 708.06 392 654 C362.63 654 333.26 654 303 654 C302.70992906 623.19446634 302.70992906 623.19446634 302.57690716 607.87660503 C302.50513481 599.62286269 302.43169862 591.36914669 302.35180664 583.11547852 C302.28851513 576.57623892 302.229356 570.03697649 302.17494446 563.49765676 C302.14605605 560.04243437 302.11524459 556.58725572 302.07946587 553.13209724 C301.83225497 528.62138305 301.83225497 528.62138305 302.49243164 519.04858398 C303.12292119 509.05082106 303 499.0176235 303 489 C250.86 489 198.72 489 145 489 C145.83330324 496.54064652 145.83330324 496.54064652 147 504 C146.34 504 145.68 504 145 504 C145.0721875 504.79664063 145.144375 505.59328125 145.21875 506.4140625 C145.3115625 507.47367187 145.404375 508.53328125 145.5 509.625 C145.5928125 510.66914063 145.685625 511.71328125 145.78125 512.7890625 C146 516 146 516 145.96875 519.2109375 C145.85889918 522.08599602 145.85889918 522.08599602 147 525 C146.76164968 526.56630211 146.52000554 528.13217427 146.26171875 529.6953125 C145.58813812 535.62684345 145.10217796 542.30653388 147 548 C146.69556292 549.67218628 146.35888592 551.33864821 146 553 C145.91245897 554.75225113 145.87216054 556.50728293 145.87060547 558.26171875 C145.86587723 559.79856323 145.86587723 559.79856323 145.86105347 561.36645508 C145.8630777 562.4623999 145.86510193 563.55834473 145.8671875 564.6875 C145.86623077 565.82276123 145.86527405 566.95802246 145.86428833 568.12768555 C145.86360866 570.52490291 145.86544809 572.92212213 145.86962891 575.31933594 C145.87498011 578.98637022 145.86967666 582.65328202 145.86328125 586.3203125 C145.86394207 588.65104194 145.86522331 590.9817713 145.8671875 593.3125 C145.86415115 594.95641724 145.86415115 594.95641724 145.86105347 596.63354492 C145.86420563 597.65810791 145.86735779 598.6826709 145.87060547 599.73828125 C145.87140106 600.63587158 145.87219666 601.53346191 145.87301636 602.45825195 C146.00288663 605.05777969 146.48899064 607.45290865 147 610 C146.66666667 611.33333333 146.33333333 612.66666667 146 614 C146.2475 615.11375 146.2475 615.11375 146.5 616.25 C147.0484998 619.26674888 146.65182981 621.75022686 146.24462891 624.76321411 C145.83738468 628.48688744 145.89771239 632.19218254 145.9375 635.93359375 C145.94317993 637.1878994 145.94317993 637.1878994 145.94897461 638.46754456 C145.96508131 642.00080776 145.99295346 645.53394895 146.02050781 649.06713867 C146.03899652 651.66845115 146.05084024 654.26974293 146.0625 656.87109375 C146.07494751 658.01426308 146.07494751 658.01426308 146.08764648 659.18052673 C146.12322178 667.51344261 145.49301542 675.6187378 145 684 C129.16 684 113.32 684 97 684 C95.875 671.625 95.875 671.625 95.97827148 667.43676758 C95.99869507 666.48386841 96.01911865 665.53096924 96.04016113 664.54919434 C96.0668689 663.59065552 96.09357666 662.6321167 96.12109375 661.64453125 C96.14175903 660.73167358 96.16242432 659.81881592 96.18371582 658.8782959 C96.26148284 655.52286541 96.35009706 652.16769332 96.4375 648.8125 C96.623125 641.284375 96.80875 633.75625 97 626 C70.27 626 43.54 626 16 626 C15.34 627.98 14.68 629.96 14 632 C12.5625 634.1171875 12.5625 634.1171875 11 635.875 C10.484375 636.47054687 9.96875 637.06609375 9.4375 637.6796875 C8 639 8 639 6 639 C5.62875 639.86625 5.62875 639.86625 5.25 640.75 C4 643 4 643 0 647 C0 433.49 0 219.98 0 0 Z " fill="#6546D7" transform="translate(0,0)"/>
<path d="M0 0 C31.02 0 62.04 0 94 0 C94 61.38 94 122.76 94 186 C108.52 186 123.04 186 138 186 C138 172.47 138 158.94 138 145 C149.55 145 161.1 145 173 145 C173 122.23 173 99.46 173 76 C197.09 76 221.18 76 246 76 C246 121.54 246 167.08 246 214 C263.16 214 280.32 214 298 214 C298 164.83 298 115.66 298 65 C298.33 65 298.66 65 299 65 C299 149.15 299 233.3 299 320 C287.45 320 275.9 320 264 320 C264 303.17 264 286.34 264 269 C227.7 269 191.4 269 154 269 C154 337.31 154 405.62 154 476 C138.16 476 122.32 476 106 476 C106 423.53 106 371.06 106 317 C76.63 317 47.26 317 17 317 C16.70992906 286.19446634 16.70992906 286.19446634 16.57690716 270.87660503 C16.50513481 262.62286269 16.43169862 254.36914669 16.35180664 246.11547852 C16.28851513 239.57623892 16.229356 233.03697649 16.17494446 226.49765676 C16.14605605 223.04243437 16.11524459 219.58725572 16.07946587 216.13209724 C15.81618715 190.02827524 15.81618715 190.02827524 16.76745605 177.32348633 C17.12638777 172.19368326 17.10998685 167.07703869 17.0625 161.9375 C17.05798828 160.96490234 17.05347656 159.99230469 17.04882812 158.99023438 C17.03734977 156.66012768 17.01943511 154.33005392 17 152 C11.39 152 5.78 152 0 152 C0 101.84 0 51.68 0 0 Z " fill="#4F37CC" transform="translate(286,337)"/>
<path d="M0 0 C1.69563532 -0.10076407 3.39343037 -0.16857274 5.09155273 -0.20996094 C6.4479612 -0.25271149 6.4479612 -0.25271149 7.83177185 -0.29632568 C9.74887903 -0.34356819 11.66639196 -0.37624359 13.58398438 -0.39550781 C16.49690468 -0.44386708 19.39180823 -0.59857814 22.30053711 -0.75683594 C35.4722887 -1.13194297 35.4722887 -1.13194297 39.78649902 2.22470093 C42.90427972 5.71248565 44.97724191 9.61942684 46.9573822 13.82963562 C48.65370506 17.16406447 50.87253471 20.1139881 53.08764648 23.11816406 C53.91746797 24.27022383 54.74694801 25.4225297 55.57592773 26.57519531 C61.57062649 34.81409077 61.57062649 34.81409077 68.55004883 42.18701172 C72.36321707 46.79849615 71.5811542 52.2914187 71.45092773 57.98535156 C71.44031563 59.73720261 71.44031563 59.73720261 71.42948914 61.52444458 C71.40156665 65.24384399 71.338827 68.96172189 71.27514648 72.68066406 C71.25006107 75.20668394 71.22724834 77.73272749 71.20678711 80.25878906 C71.15600405 86.44213425 71.05813577 92.62220218 70.96264648 98.80566406 C61.72264648 98.80566406 52.48264648 98.80566406 42.96264648 98.80566406 C43.79594972 106.34631059 43.79594972 106.34631059 44.96264648 113.80566406 C44.30264648 113.80566406 43.64264648 113.80566406 42.96264648 113.80566406 C43.03483398 114.60230469 43.10702148 115.39894531 43.18139648 116.21972656 C43.27420898 117.27933594 43.36702148 118.33894531 43.46264648 119.43066406 C43.55545898 120.47480469 43.64827148 121.51894531 43.74389648 122.59472656 C43.96264648 125.80566406 43.96264648 125.80566406 43.93139648 129.01660156 C43.82154567 131.89166008 43.82154567 131.89166008 44.96264648 134.80566406 C44.72429616 136.37196618 44.48265202 137.93783833 44.22436523 139.50097656 C43.5507846 145.43250751 43.06482445 152.11219795 44.96264648 157.80566406 C44.6582094 159.47785034 44.32153241 161.14431227 43.96264648 162.80566406 C43.87510546 164.55791519 43.83480702 166.31294699 43.83325195 168.06738281 C43.82852371 169.60422729 43.82852371 169.60422729 43.82369995 171.17211914 C43.82572418 172.26806396 43.82774841 173.36400879 43.82983398 174.49316406 C43.82887726 175.62842529 43.82792053 176.76368652 43.82693481 177.93334961 C43.82625514 180.33056697 43.82809458 182.72778619 43.83227539 185.125 C43.83762659 188.79203428 43.83232315 192.45894608 43.82592773 196.12597656 C43.82658855 198.456706 43.82786979 200.78743536 43.82983398 203.11816406 C43.82679764 204.7620813 43.82679764 204.7620813 43.82369995 206.43920898 C43.82685211 207.46377197 43.83000427 208.48833496 43.83325195 209.54394531 C43.83404755 210.44153564 43.83484314 211.33912598 43.83566284 212.26391602 C43.96553311 214.86344375 44.45163713 217.25857271 44.96264648 219.80566406 C44.62931315 221.1389974 44.29597982 222.47233073 43.96264648 223.80566406 C44.12764648 224.54816406 44.29264648 225.29066406 44.46264648 226.05566406 C45.01114628 229.07241294 44.61447629 231.55589092 44.20727539 234.56887817 C43.80003117 238.2925515 43.86035888 241.9978466 43.90014648 245.73925781 C43.90393311 246.57546158 43.90771973 247.41166534 43.91162109 248.27320862 C43.92772779 251.80647182 43.95559994 255.33961301 43.9831543 258.87280273 C44.001643 261.47411521 44.01348673 264.07540699 44.02514648 266.67675781 C44.03759399 267.81992714 44.03759399 267.81992714 44.05029297 268.9861908 C44.08586826 277.31910667 43.45566191 285.42440186 42.96264648 293.80566406 C27.12264648 293.80566406 11.28264648 293.80566406 -5.03735352 293.80566406 C-6.16235352 281.43066406 -6.16235352 281.43066406 -6.05908203 277.24243164 C-6.03865845 276.28953247 -6.01823486 275.3366333 -5.99719238 274.3548584 C-5.97048462 273.39631958 -5.94377686 272.43778076 -5.91625977 271.45019531 C-5.89559448 270.53733765 -5.8749292 269.62447998 -5.8536377 268.68395996 C-5.77587068 265.32852947 -5.68725646 261.97335738 -5.59985352 258.61816406 C-5.41422852 251.09003906 -5.22860352 243.56191406 -5.03735352 235.80566406 C-31.76735352 235.80566406 -58.49735352 235.80566406 -86.03735352 235.80566406 C-86.69735352 237.78566406 -87.35735352 239.76566406 -88.03735352 241.80566406 C-89.47485352 243.92285156 -89.47485352 243.92285156 -91.03735352 245.68066406 C-91.81079102 246.57398438 -91.81079102 246.57398438 -92.59985352 247.48535156 C-94.03735352 248.80566406 -94.03735352 248.80566406 -96.03735352 248.80566406 C-96.28485352 249.38316406 -96.53235352 249.96066406 -96.78735352 250.55566406 C-98.03735352 252.80566406 -98.03735352 252.80566406 -102.03735352 256.80566406 C-102.03735352 202.68566406 -102.03735352 148.56566406 -102.03735352 92.80566406 C-93.45735352 92.80566406 -84.87735352 92.80566406 -76.03735352 92.80566406 C-75.03735352 93.80566406 -75.03735352 93.80566406 -74.92382812 97.49926758 C-74.92398728 99.14437699 -74.92968363 100.78949137 -74.93969727 102.43457031 C-74.94111221 103.29880112 -74.94252716 104.16303192 -74.94398499 105.05345154 C-74.94960113 107.82505698 -74.96215632 110.59658286 -74.97485352 113.36816406 C-74.97986644 115.24251186 -74.9844297 117.11686091 -74.98852539 118.99121094 C-74.9995758 123.5960595 -75.01685122 128.20084827 -75.03735352 132.80566406 C-71.07735352 132.80566406 -67.11735352 132.80566406 -63.03735352 132.80566406 C-63.03735352 148.97566406 -63.03735352 165.14566406 -63.03735352 181.80566406 C-55.44735352 181.80566406 -47.85735352 181.80566406 -40.03735352 181.80566406 C-40.05733902 180.17194351 -40.07732452 178.53822296 -40.09791565 176.85499573 C-40.28045103 161.45015467 -40.41585935 146.04565011 -40.50366306 130.63998508 C-40.55000608 122.71991506 -40.61314779 114.8006541 -40.71630859 106.88110352 C-40.80621632 99.97566688 -40.86412448 93.0708163 -40.88414997 86.1648106 C-40.89585078 82.51016747 -40.92320151 78.85720039 -40.98892403 75.20309639 C-41.06182997 71.11617918 -41.06325033 67.03214596 -41.05908203 62.94458008 C-41.09143951 61.74264008 -41.123797 60.54070007 -41.15713501 59.30233765 C-41.08592449 52.8383528 -40.36491518 49.42000278 -35.70445251 44.77500916 C-34.92123092 44.11218398 -34.13800932 43.44935881 -33.33105373 42.76644802 C-29.53124251 39.51815566 -26.81180087 35.47308316 -23.91235352 31.43066406 C-23.31197266 30.60719482 -22.7115918 29.78372559 -22.09301758 28.93530273 C-18.23924783 23.60837141 -14.60867424 18.21159281 -11.27172852 12.54394531 C-10.86438477 11.9703125 -10.45704102 11.39667969 -10.03735352 10.80566406 C-9.37735352 10.80566406 -8.71735352 10.80566406 -8.03735352 10.80566406 C-7.93422852 10.08378906 -7.83110352 9.36191406 -7.72485352 8.61816406 C-6.49596407 3.59088908 -5.41491557 0.65347144 0 0 Z " fill="#4F37CC" transform="translate(102.037353515625,390.1943359375)"/>
<path d="M0 0 C32.67 0 65.34 0 99 0 C99 47.85 99 95.7 99 145 C106.26 145 113.52 145 121 145 C121 191.86 121 238.72 121 287 C107.14 286.67 93.28 286.34 79 286 C79.00523682 281.2660791 79.01047363 276.5321582 79.01586914 271.65478516 C79.03244378 256.00859107 79.04353774 240.36239663 79.05181217 224.71619606 C79.05696225 215.23055193 79.06398038 205.74491613 79.07543945 196.25927734 C79.08542567 187.98888213 79.09186279 179.71849294 79.09408849 171.44809186 C79.09538892 167.07147243 79.09843236 162.69487026 79.10573006 158.31825638 C79.11255245 154.19299949 79.11460437 150.06776688 79.11310768 145.94250488 C79.11338122 144.43412519 79.11534926 142.92574463 79.11920547 141.41736984 C79.13672735 134.20564958 79.10112019 127.08977689 78.11710262 119.93065453 C78 118 78 118 79 115 C79.07051114 112.26134713 79.09357765 109.54972412 79.0625 106.8125 C79.05798828 106.06291016 79.05347656 105.31332031 79.04882812 104.54101562 C79.03706354 102.69397617 79.01912865 100.84697787 79 99 C75.79168609 98.9707517 72.58340693 98.95311811 69.375 98.9375 C68.47136719 98.92912109 67.56773437 98.92074219 66.63671875 98.91210938 C62.85832206 98.89831961 59.33713274 98.94381121 55.6015625 99.56640625 C52.87503587 100.02082736 51.62216093 99.66782887 49 99 C47.63564144 98.92178435 46.26792753 98.89210646 44.90136719 98.90234375 C44.09391052 98.90560669 43.28645386 98.90886963 42.45452881 98.91223145 C41.13899017 98.92473938 41.13899017 98.92473938 39.796875 98.9375 C37.86849017 98.94609712 35.94010472 98.95455415 34.01171875 98.96289062 C32.99126465 98.96909424 31.97081055 98.97529785 30.91943359 98.98168945 C11.93912054 99.09134309 -7.02435488 98.92961005 -26 98.5 C-27.06335571 98.47599121 -28.12671143 98.45198242 -29.22229004 98.42724609 C-35.14837665 98.29186636 -41.07424729 98.14925529 -47 98 C-47 97.67 -47 97.34 -47 97 C-31.49 97 -15.98 97 0 97 C0 64.99 0 32.98 0 0 Z " fill="#5138CC" transform="translate(784,425)"/>
<path d="M0 0 C11.55 0 23.1 0 35 0 C35.61801846 6.79820309 36.1474882 13.29597286 36.12939453 20.07299805 C36.13114685 20.90721786 36.13289917 21.74143768 36.13470459 22.60093689 C36.13905589 25.32121956 36.13620769 28.04143557 36.1328125 30.76171875 C36.13348779 32.68064893 36.13445968 34.59957902 36.13571167 36.51850891 C36.13717984 40.52854227 36.13506372 44.53855324 36.13037109 48.54858398 C36.12469374 53.64390963 36.1279458 58.73918235 36.13394356 63.83450603 C36.13758962 67.79576502 36.13639185 71.75701186 36.13381577 75.71827126 C36.13315663 77.59461282 36.13393875 79.47095556 36.13629532 81.34729576 C36.14733288 92.60927014 35.86434897 103.76808387 35 115 C35.99 115.495 35.99 115.495 37 116 C33.88045872 117.55977064 30.57040616 117.12104126 27.1484375 117.09765625 C26.37440582 117.0962413 25.60037415 117.09482635 24.80288696 117.09336853 C22.32688558 117.08776403 19.85097412 117.07521083 17.375 117.0625 C15.69791797 117.05748558 14.02083453 117.05292257 12.34375 117.04882812 C8.22913194 117.03779315 4.11458122 117.02052554 0 117 C-0.96836357 114.0949093 -1.11214592 112.32673796 -1.08229065 109.31135559 C-1.07525116 108.34801804 -1.06821167 107.38468048 -1.06095886 106.39215088 C-1.04801285 105.33695251 -1.03506683 104.28175415 -1.02172852 103.19458008 C-1.01212097 102.08223495 -1.00251343 100.96988983 -0.99261475 99.82383728 C-0.95957539 96.13900521 -0.91926168 92.45428987 -0.87890625 88.76953125 C-0.85460997 86.21791498 -0.83076617 83.66629437 -0.80735779 81.1146698 C-0.75089952 75.07984506 -0.68987016 69.04508321 -0.62663645 63.01032704 C-0.55489973 56.13980966 -0.48898671 49.26924028 -0.42356598 42.3986603 C-0.28886326 28.26570414 -0.14606819 14.13284303 0 0 Z " fill="#4E37CB" transform="translate(737,524)"/>
<path d="M0 0 C0.66 0 1.32 0 2 0 C2 44.55 2 89.1 2 135 C-35.29 135 -72.58 135 -111 135 C-110.505 133.02 -110.505 133.02 -110 131 C-108.97837769 131.16298584 -107.95675537 131.32597168 -106.9041748 131.49389648 C-103.38136317 131.95056337 -100.07969712 132.11481266 -96.53320312 132.09765625 C-94.6759259 132.09270142 -94.6759259 132.09270142 -92.78112793 132.08764648 C-91.46116821 132.07934814 -90.1412085 132.0710498 -88.78125 132.0625 C-87.39555025 132.05808704 -86.00984848 132.05427242 -84.62414551 132.05102539 C-80.24940093 132.03965644 -75.87471048 132.02041956 -71.5 132 C-66.4263495 131.97631804 -61.3527305 131.95595012 -56.27903748 131.94406128 C-54.25896493 131.93762807 -52.23891494 131.92505315 -50.21887207 131.91235352 C-48.36159485 131.90739868 -48.36159485 131.90739868 -46.46679688 131.90234375 C-45.38426636 131.89710693 -44.30173584 131.89187012 -43.18640137 131.88647461 C-39.73620045 132.00939867 -36.41426398 132.50680812 -33 133 C-30.86825478 132.6131207 -30.86825478 132.6131207 -29 132 C-27.58214608 131.93326176 -26.16142722 131.91464488 -24.7421875 131.9375 C-23.95199219 131.94523438 -23.16179687 131.95296875 -22.34765625 131.9609375 C-21.53167969 131.97382813 -20.71570313 131.98671875 -19.875 132 C-14.27162638 132.37069529 -14.27162638 132.37069529 -9 131 C-9 131.66 -9 132.32 -9 133 C-6.03 133 -3.06 133 0 133 C0 89.11 0 45.22 0 0 Z " fill="#7555DC" transform="translate(284,354)"/>
<path d="M0 0 C1.32 0 2.64 0 4 0 C4 24.42 4 48.84 4 74 C8.29 74 12.58 74 17 74 C17 74.33 17 74.66 17 75 C12.38 75 7.76 75 3 75 C2.67 73.68 2.34 72.36 2 71 C1.67 72.32 1.34 73.64 1 75 C-3.62 75 -8.24 75 -13 75 C-13 74.67 -13 74.34 -13 74 C-8.71 74 -4.42 74 0 74 C0 49.58 0 25.16 0 0 Z " fill="#4129C2" transform="translate(659,204)"/>
<path d="M0 0 C0.66 0 1.32 0 2 0 C2.75282985 4.01509254 3.07382476 7.26517853 2.4375 11.3125 C2.293125 12.529375 2.14875 13.74625 2 15 C2.66 15.66 3.32 16.32 4 17 C4 21 4 21 3.5 24.375 C2.92741138 27.91638076 2.92741138 27.91638076 3 31.1875 C3 34 3 34 2.44140625 35.89453125 C1.91123319 38.42340985 2.2858271 40.0125688 2.9375 42.5 C4.08354437 46.93238354 4.21590566 50.52657717 2.9375 54.9375 C1.70220925 60.10170159 2.21433171 64.8462699 2.80859375 70.08203125 C2.98218582 72.7284247 2.82626397 74.50914584 2 77 C2.66 77 3.32 77 4 77 C3.84402344 77.58007812 3.68804687 78.16015625 3.52734375 78.7578125 C2.33060169 83.56063162 1.83180426 87.09357791 3 92 C3 94 3 96 3 98 C3.207787 99.68756736 3.41619428 101.37505839 3.625 103.0625 C4.10490256 107.95880317 3.64201554 111.97546693 2.375 116.7109375 C1.93642936 119.38804579 2.33561297 121.38858987 3 124 C1.515 124.99 1.515 124.99 0 126 C0 84.42 0 42.84 0 0 Z " fill="#7151D8" transform="translate(380,377)"/>
<path d="M0 0 C5.25022962 0.68973634 10.46734712 0.63618727 15.75488281 0.60913086 C17.33601868 0.60700844 17.33601868 0.60700844 18.94909668 0.60484314 C22.29063852 0.59927969 25.63211148 0.58673402 28.97363281 0.57397461 C31.24967351 0.56895488 33.52571526 0.56439281 35.80175781 0.56030273 C41.35907268 0.54932225 46.91634782 0.53262083 52.47363281 0.51147461 C52.47363281 1.17147461 52.47363281 1.83147461 52.47363281 2.51147461 C28.38363281 2.51147461 4.29363281 2.51147461 -20.52636719 2.51147461 C-20.52636719 25.28147461 -20.52636719 48.05147461 -20.52636719 71.51147461 C-22.50636719 71.51147461 -24.48636719 71.51147461 -26.52636719 71.51147461 C-25.04136719 71.01647461 -25.04136719 71.01647461 -23.52636719 70.51147461 C-22.73738384 61.81725842 -22.39849228 53.22718674 -22.46386719 44.49975586 C-22.46954712 42.73658272 -22.46954712 42.73658272 -22.4753418 40.93778992 C-22.48742898 37.23314505 -22.50608252 33.52858307 -22.52636719 29.82397461 C-22.55289147 24.90340412 -22.57287259 19.98287049 -22.58886719 15.06225586 C-22.59716553 13.93217606 -22.60546387 12.80209625 -22.61401367 11.63777161 C-22.61731689 10.59876205 -22.62062012 9.5597525 -22.62402344 8.48925781 C-22.62926025 7.5736055 -22.63449707 6.65795319 -22.63989258 5.71455383 C-22.52636719 3.51147461 -22.52636719 3.51147461 -21.52636719 1.51147461 C-18.07117258 0.27747654 -14.41062373 0.16420164 -10.77636719 -0.11352539 C-9.60589844 -0.20891602 -8.43542969 -0.30430664 -7.22949219 -0.40258789 C-3.52636719 -0.48852539 -3.52636719 -0.48852539 0 0 Z " fill="#7555DD" transform="translate(479.5263671875,410.488525390625)"/>
<path d="M0 0 C1.28519531 -0.00386719 2.57039062 -0.00773438 3.89453125 -0.01171875 C9.87304604 -0.00564919 15.84925112 0.07293344 21.8203125 0.3828125 C22.75117676 0.42809082 23.68204102 0.47336914 24.64111328 0.52001953 C27.81873065 1.29396644 29.0878768 2.61314465 31.125 5.125 C31.55078125 7.30859375 31.55078125 7.30859375 31.4375 9.5625 C31.40076172 10.67431641 31.40076172 10.67431641 31.36328125 11.80859375 C31.10777745 14.29242582 30.6541098 16.68593289 30.125 19.125 C32.06333996 19.03784983 34.0007429 18.92967036 35.9375 18.8125 C37.01644531 18.75449219 38.09539063 18.69648437 39.20703125 18.63671875 C42.29997517 18.09431493 43.25522903 17.57210376 45.125 15.125 C45.62 17.105 45.62 17.105 46.125 19.125 C46.76824219 18.95097656 47.41148437 18.77695312 48.07421875 18.59765625 C52.10125611 17.97374905 55.88740413 18.26714515 59.9375 18.5625 C61.11989258 18.64081055 61.11989258 18.64081055 62.32617188 18.72070312 C64.25951529 18.84959269 66.19232164 18.98649494 68.125 19.125 C67.91875 18.196875 67.7125 17.26875 67.5 16.3125 C67.125 13.125 67.125 13.125 69.125 10.125 C69.125 13.425 69.125 16.725 69.125 20.125 C55.595 20.125 42.065 20.125 28.125 20.125 C28.125 14.515 28.125 8.905 28.125 3.125 C10.635 3.125 -6.855 3.125 -24.875 3.125 C-24.875 2.465 -24.875 1.805 -24.875 1.125 C-16.57907739 0.0566779 -8.35543266 -0.02499132 0 0 Z " fill="#7B58DC" transform="translate(929.875,532.875)"/>
<path d="M0 0 C0.33 0 0.66 0 1 0 C2.33658611 11.7249849 3.25206388 23.03251518 2.296875 34.8046875 C1.92455746 39.4945428 1.87782737 44.17214429 1.875 48.875 C1.87064941 49.64295898 1.86629883 50.41091797 1.86181641 51.20214844 C1.86974839 54.39946004 1.98170875 56.94512626 3 60 C2.34 60 1.68 60 1 60 C1 61.65 1 63.3 1 65 C1.66 65.33 2.32 65.66 3 66 C2.814375 66.763125 2.62875 67.52625 2.4375 68.3125 C1.77180827 71.08967375 1.77180827 71.08967375 3 74 C2.87890625 76.0859375 2.87890625 76.0859375 2.5625 78.375 C1.60445988 84.33016153 1.60445988 84.33016153 3 90 C2.90897012 91.42124078 2.75179283 92.83848308 2.5625 94.25 C1.80983799 100.83096781 1.91421764 107.38522665 2 114 C1.01 114.495 1.01 114.495 0 115 C0 77.05 0 39.1 0 0 Z " fill="#7B5AE2" transform="translate(737,401)"/>
<path d="M0 0 C0.33 0 0.66 0 1 0 C1 39.6 1 79.2 1 120 C16.51 120 32.02 120 48 120 C47 122 47 122 45.3125 122.6875 C42.37519398 123.08443325 39.88840266 122.59080963 37 122 C36.67 122.66 36.34 123.32 36 124 C36 123.01 36 122.02 36 121 C24.12 121 12.24 121 0 121 C0 81.07 0 41.14 0 0 Z " fill="#4328B5" transform="translate(736,403)"/>
<path d="M0 0 C1.485 0.99 1.485 0.99 3 2 C3.328125 4.75 3.328125 4.75 3.25 8 C3.23453125 9.0725 3.2190625 10.145 3.203125 11.25 C3 14 3 14 2 16 C7.37514905 16.04935509 12.75016685 16.08569802 18.12548828 16.10986328 C19.95493873 16.11993484 21.78437303 16.13359276 23.61376953 16.15087891 C26.23994934 16.17507677 28.86591675 16.18647132 31.4921875 16.1953125 C32.31306854 16.20563507 33.13394958 16.21595764 33.97970581 16.22659302 C35.98789142 16.22699184 37.99555382 16.1224954 40 16 C40.66 15.34 41.32 14.68 42 14 C42 15.32 42 16.64 42 18 C28.14 18 14.28 18 0 18 C0 12.06 0 6.12 0 0 Z " fill="#7D5ADC" transform="translate(381,504)"/>
<path d="M0 0 C0.66 1.32 1.32 2.64 2 4 C1.67 4.66 1.34 5.32 1 6 C1.66 6 2.32 6 3 6 C3.125 13.625 3.125 13.625 2 17 C2.165 17.61875 2.33 18.2375 2.5 18.875 C3.12864208 21.54672884 2.56103232 23.31951223 2 26 C1.86233227 29.92353019 2.02571261 33.22463637 3 37 C3.27028532 41.23447 2.80811691 44.15775156 1 48 C0.67 48 0.34 48 0 48 C0 32.16 0 16.32 0 0 Z " fill="#7C5ADC" transform="translate(532,487)"/>
<path d="M0 0 C2.42205646 0.0805562 4.84615605 0.10762899 7.26953125 0.09765625 C8.29103523 0.09553383 8.29103523 0.09553383 9.33317566 0.09336853 C11.49299647 0.08780298 13.65271089 0.07525703 15.8125 0.0625 C17.28320162 0.05748054 18.75390488 0.05291841 20.22460938 0.04882812 C23.8164404 0.03784488 27.4082098 0.02060422 31 0 C30.67 0.66 30.34 1.32 30 2 C25.05209823 2.0493651 20.10433917 2.08570269 15.15625 2.10986328 C13.47230534 2.11993317 11.78837821 2.13358988 10.10449219 2.15087891 C7.68680499 2.17508426 5.26934857 2.18647296 2.8515625 2.1953125 C2.0963028 2.20563507 1.34104309 2.21595764 0.56289673 2.22659302 C-1.2929398 2.22699318 -3.1481928 2.12222716 -5 2 C-5.66 1.34 -6.32 0.68 -7 0 C-4.29134233 -1.35432884 -2.95963379 -0.59478705 0 0 Z " fill="#7453DD" transform="translate(106,389)"/>
<path d="M0 0 C1.90608098 3.21182149 2.22266247 5.53882603 2.125 9.25 C2.10695313 10.14203125 2.08890625 11.0340625 2.0703125 11.953125 C2.04710937 12.62859375 2.02390625 13.3040625 2 14 C2.61746094 13.90460937 3.23492188 13.80921875 3.87109375 13.7109375 C10.04496988 12.90278933 15.02840419 13.25467852 21 15 C21 15.33 21 15.66 21 16 C13.74 16 6.48 16 -1 16 C-1.020625 13.545625 -1.04125 11.09125 -1.0625 8.5625 C-1.071604 7.78849854 -1.08070801 7.01449707 -1.09008789 6.21704102 C-1.09724913 4.47778283 -1.05024702 2.73854696 -1 1 C-0.67 0.67 -0.34 0.34 0 0 Z " fill="#7B59DC" transform="translate(533,535)"/>
<path d="M0 0 C0.66 0.33 1.32 0.66 2 1 C2 2.98 2 4.96 2 7 C-13.51 7 -29.02 7 -45 7 C-45 5.35 -45 3.7 -45 2 C-44.34 2 -43.68 2 -43 2 C-43 2.99 -43 3.98 -43 5 C-29.14 5 -15.28 5 -1 5 C-0.67 3.35 -0.34 1.7 0 0 Z " fill="#7F5DE0" transform="translate(782,515)"/>
<path d="M0 0 C15.51 0 31.02 0 47 0 C46 2 46 2 44.3125 2.6875 C41.37519398 3.08443325 38.88840266 2.59080963 36 2 C35.67 2.66 35.34 3.32 35 4 C35 3.01 35 2.02 35 1 C23.45 1 11.9 1 0 1 C0 0.67 0 0.34 0 0 Z " fill="#452EC4" transform="translate(737,523)"/>
<path d="M0 0 C1.32 0.99 2.64 1.98 4 3 C4 3.66 4 4.32 4 5 C3.34 5 2.68 5 2 5 C2.185625 5.7425 2.37125 6.485 2.5625 7.25 C3.01008338 10.06338124 2.68394214 11.31031151 2 14 C1.94451418 15.34524122 1.93701879 16.69314921 1.97265625 18.0390625 C1.98490234 18.78414063 1.99714844 19.52921875 2.00976562 20.296875 C2.04510085 21.85685972 2.08420116 23.41676342 2.12695312 24.9765625 C2.15658566 26.98460227 2.08515997 28.99354801 2 31 C1.34 31.66 0.68 32.32 0 33 C0 22.11 0 11.22 0 0 Z " fill="#6F4ED8" transform="translate(380,339)"/>
<path d="M0 0 C7.59 0 15.18 0 23 0 C23 0.33 23 0.66 23 1 C21.81921875 1.06058594 20.6384375 1.12117188 19.421875 1.18359375 C17.8645723 1.26802582 16.30728121 1.35267249 14.75 1.4375 C13.97269531 1.47681641 13.19539062 1.51613281 12.39453125 1.55664062 C11.26337891 1.61948242 11.26337891 1.61948242 10.109375 1.68359375 C9.07248535 1.73858032 9.07248535 1.73858032 8.01464844 1.79467773 C5.93371671 2.00675524 4.01427578 2.44508677 2 3 C2.02320313 3.77085937 2.04640625 4.54171875 2.0703125 5.3359375 C2.08835937 6.33882813 2.10640625 7.34171875 2.125 8.375 C2.14820313 9.37273437 2.17140625 10.37046875 2.1953125 11.3984375 C2 14 2 14 0 16 C0 10.72 0 5.44 0 0 Z " fill="#4D33C7" transform="translate(1000,428)"/>
<path d="M0 0 C0.99 0.495 0.99 0.495 2 1 C1.67 2.65 1.34 4.3 1 6 C1.66 6.33 2.32 6.66 3 7 C2.67 10.3 2.34 13.6 2 17 C4.31 17.33 6.62 17.66 9 18 C9 18.33 9 18.66 9 19 C6.03 19 3.06 19 0 19 C0 12.73 0 6.46 0 0 Z " fill="#7856DB" transform="translate(39,552)"/>
<path d="M0 0 C0.33 0 0.66 0 1 0 C1 10.23 1 20.46 1 31 C0.34 30.67 -0.32 30.34 -1 30 C-0.67 24.72 -0.34 19.44 0 14 C-0.66 14 -1.32 14 -2 14 C-1.34 9.38 -0.68 4.76 0 0 Z " fill="#3A23BE" transform="translate(711,352)"/>
<path d="M0 0 C0.99 0.495 0.99 0.495 2 1 C3.71493523 7.8459108 2.73047074 14.27833678 1 21 C0.67 21 0.34 21 0 21 C0 14.07 0 7.14 0 0 Z " fill="#7B58D9" transform="translate(381,475)"/>
<path d="M0 0 C3.48127974 3.48127974 3 8.27495154 3 13 C2.44753288 15.70314272 1.71149502 18.33189369 1 21 C0.67 21 0.34 21 0 21 C0 14.07 0 7.14 0 0 Z " fill="#7A57D9" transform="translate(381,415)"/>
<path d="M0 0 C0.66 0 1.32 0 2 0 C2.24900646 1.93505023 2.47356242 3.87325934 2.6875 5.8125 C2.87892578 7.43091797 2.87892578 7.43091797 3.07421875 9.08203125 C3 12 3 12 0 15 C0 10.05 0 5.1 0 0 Z " fill="#3A24C1" transform="translate(610,362)"/>
<path d="M0 0 C1.6415049 3.2830098 0.51888624 6.42545033 0 10 C0.66 10 1.32 10 2 10 C1.34 11.98 0.68 13.96 0 16 C-0.33 16 -0.66 16 -1 16 C-1.02685095 13.52076199 -1.04676547 11.0418116 -1.0625 8.5625 C-1.07506836 7.50192383 -1.07506836 7.50192383 -1.08789062 6.41992188 C-1.09653588 4.61306441 -1.05220011 2.80612397 -1 1 C-0.67 0.67 -0.34 0.34 0 0 Z " fill="#7B58DA" transform="translate(382,444)"/>
<path d="M0 0 C0.33 0 0.66 0 1 0 C1.2236337 1.41433206 1.42826476 2.83167618 1.625 4.25 C1.74101562 5.03890625 1.85703125 5.8278125 1.9765625 6.640625 C2.00319395 9.32152459 1.36592084 10.72694089 0 13 C-0.33 13 -0.66 13 -1 13 C-1.02686553 11.02090602 -1.04633375 9.04171029 -1.0625 7.0625 C-1.07410156 5.96035156 -1.08570313 4.85820312 -1.09765625 3.72265625 C-1 1 -1 1 0 0 Z " fill="#7958DE" transform="translate(174,441)"/>
<path d="M0 0 C0.33 0 0.66 0 1 0 C1 2.64 1 5.28 1 8 C-2.63 8 -6.26 8 -10 8 C-9.34 7.34 -8.68 6.68 -8 6 C-6.33333333 6 -4.66666667 6 -3 6 C-0.8614515 3.8614515 -0.57344937 2.86724686 0 0 Z " fill="#6F4EDD" transform="translate(658,270)"/>
<path d="M0 0 C4 4 4 4 4 7 C3.34 7 2.68 7 2 7 C2 7.66 2 8.32 2 9 C1.34 9 0.68 9 0 9 C-1.15941038 5.52176885 -0.70820884 3.54104422 0 0 Z " fill="#4932C9" transform="translate(957,656)"/>
<path d="M0 0 C0.99 0.495 0.99 0.495 2 1 C3.17312834 6.59491979 3.17312834 6.59491979 3 9 C2.01 9.99 1.02 10.98 0 12 C0 8.04 0 4.08 0 0 Z " fill="#7755D9" transform="translate(39,523)"/>
<path d="M0 0 C3 4 3 4 4 7 C3.01 7.495 3.01 7.495 2 8 C1.34444881 10.52733235 1.34444881 10.52733235 1 13 C0.67 13 0.34 13 0 13 C0 8.71 0 4.42 0 0 Z " fill="#7858DD" transform="translate(173,455)"/>
<path d="M0 0 C0.99 0.33 1.98 0.66 3 1 C2.67 1.66 2.34 2.32 2 3 C2.66 3.33 3.32 3.66 4 4 C3.34 4 2.68 4 2 4 C1.67 5.65 1.34 7.3 1 9 C0.67 9 0.34 9 0 9 C0 6.03 0 3.06 0 0 Z " fill="#3A25C1" transform="translate(610,351)"/>
</svg>
